<?xml version="1.0" encoding="utf-8"?>
<!-- Generator: Adobe Illustrator 16.0.0, SVG Export Plug-In . SVG Version: 6.00 Build 0)  -->
<!DOCTYPE svg PUBLIC "-//W3C//DTD SVG 1.1//EN" "http://www.w3.org/Graphics/SVG/1.1/DTD/svg11.dtd">
<svg version="1.1" id="レイヤー_1" xmlns="http://www.w3.org/2000/svg" xmlns:xlink="http://www.w3.org/1999/xlink" x="0px"
	 y="0px" width="396.851px" height="104.882px" viewBox="0 0 396.851 104.882" enable-background="new 0 0 396.851 104.882"
	 xml:space="preserve">
<g>
	<path d="M115.596,91.997l5.363-14.253l5.363,14.253h-1.105l-1.723-4.704h-5.069l-1.724,4.704H115.596z M124.842,91.997h-0.294
		l-1.49-4.085h-4.197l-1.49,4.085h-0.294l1.592-4.359h4.582L124.842,91.997z M123.118,86.319l-2.159-5.819l-2.159,5.819H123.118z
		 M122.622,85.975h-0.294l-1.369-3.69l-1.369,3.69h-0.294l1.663-4.48L122.622,85.975z"/>
	<path d="M127.457,91.997v-8.992h0.963v1.075c0.608-0.858,1.494-1.288,2.656-1.288c0.453,0,0.882,0.068,1.288,0.203
		c0.392,0.142,0.744,0.341,1.054,0.598c0.311,0.277,0.548,0.585,0.71,0.923c0.338-0.561,0.767-0.99,1.288-1.288
		c0.513-0.291,1.095-0.436,1.744-0.436c0.615,0,1.199,0.146,1.753,0.436c0.548,0.291,0.963,0.686,1.247,1.186
		c0.297,0.514,0.446,1.196,0.446,2.048v5.535h-0.973v-5.535c0-0.852-0.22-1.524-0.659-2.018c-0.439-0.479-1.054-0.72-1.845-0.72
		c-0.493,0-0.939,0.119-1.338,0.355c-0.406,0.23-0.72,0.561-0.943,0.994c-0.223,0.426-0.334,0.902-0.334,1.429v5.495h-0.963v-5.545
		V86.33c-0.007-0.514-0.111-0.966-0.314-1.358c-0.203-0.392-0.49-0.7-0.862-0.922c-0.378-0.216-0.811-0.325-1.298-0.325
		c-0.5,0-0.949,0.115-1.348,0.345c-0.399,0.223-0.72,0.551-0.963,0.983c-0.23,0.412-0.345,0.885-0.345,1.419v5.525H127.457z
		 M133.195,91.997h-0.274v-5.545V86.33c0-0.608-0.166-1.088-0.497-1.439c-0.338-0.358-0.788-0.538-1.349-0.538
		c-0.602,0-1.088,0.196-1.459,0.588c-0.379,0.398-0.568,0.909-0.568,1.531v5.525h-0.274v-5.525c0-0.696,0.216-1.271,0.649-1.724
		c0.426-0.446,0.977-0.669,1.652-0.669c0.413,0,0.784,0.091,1.115,0.273c0.331,0.196,0.581,0.46,0.75,0.791
		c0.168,0.331,0.253,0.727,0.253,1.186v0.122V91.997z M139.288,91.997h-0.274v-5.535c0-0.689-0.159-1.213-0.477-1.571
		c-0.317-0.358-0.787-0.538-1.409-0.538c-0.574,0-1.047,0.196-1.419,0.588c-0.379,0.398-0.568,0.919-0.568,1.561v5.495h-0.284
		v-5.495c0-0.716,0.216-1.301,0.648-1.754c0.426-0.446,0.967-0.669,1.622-0.669c0.466,0,0.858,0.095,1.176,0.284
		c0.317,0.189,0.561,0.463,0.73,0.821c0.168,0.358,0.253,0.784,0.253,1.277V91.997z"/>
	<path d="M151.646,91.997h-0.973v-1.642c-0.973,1.23-2.22,1.845-3.741,1.845c-0.845,0-1.629-0.209-2.352-0.628
		c-0.716-0.412-1.284-0.983-1.703-1.713c-0.426-0.723-0.639-1.51-0.639-2.362c0-0.858,0.213-1.646,0.639-2.362
		c0.419-0.73,0.987-1.301,1.703-1.713c0.723-0.419,1.507-0.628,2.352-0.628c0.75,0,1.439,0.156,2.068,0.466
		c0.629,0.311,1.186,0.771,1.673,1.379v-1.632h0.973V91.997z M150.672,87.496c0-0.689-0.166-1.321-0.497-1.896
		c-0.332-0.574-0.781-1.03-1.349-1.369c-0.574-0.338-1.203-0.507-1.885-0.507c-0.683,0-1.312,0.169-1.886,0.507
		c-0.561,0.332-1.011,0.788-1.348,1.369c-0.338,0.582-0.507,1.213-0.507,1.896c0,0.676,0.169,1.304,0.507,1.885
		c0.344,0.595,0.797,1.055,1.358,1.379c0.574,0.338,1.199,0.507,1.875,0.507c0.676,0,1.301-0.169,1.875-0.507
		c0.567-0.331,1.02-0.791,1.358-1.379C150.507,88.807,150.672,88.178,150.672,87.496z M150.328,87.496
		c0,0.622-0.152,1.196-0.456,1.723c-0.304,0.527-0.716,0.943-1.237,1.247c-0.514,0.304-1.078,0.456-1.693,0.456
		c-0.615,0-1.183-0.155-1.703-0.466c-0.534-0.311-0.946-0.73-1.237-1.257c-0.304-0.527-0.457-1.095-0.457-1.703
		c0-0.608,0.152-1.176,0.457-1.703c0.291-0.521,0.703-0.939,1.237-1.257c0.527-0.304,1.095-0.456,1.703-0.456
		c0.479,0,0.926,0.088,1.338,0.264c0.406,0.182,0.76,0.426,1.064,0.73c0.297,0.311,0.538,0.672,0.72,1.084
		C150.24,86.583,150.328,87.029,150.328,87.496z M150.054,87.496c0-0.433-0.078-0.842-0.233-1.227
		c-0.156-0.372-0.378-0.703-0.669-0.993c-0.298-0.297-0.632-0.527-1.004-0.689c-0.392-0.155-0.794-0.233-1.206-0.233
		c-0.865,0-1.599,0.304-2.2,0.913c-0.608,0.615-0.912,1.358-0.912,2.23c0,0.878,0.304,1.622,0.912,2.23
		c0.595,0.615,1.328,0.923,2.2,0.923c0.412,0,0.814-0.081,1.206-0.244c0.372-0.155,0.71-0.385,1.014-0.689
		c0.291-0.297,0.51-0.632,0.659-1.004C149.976,88.327,150.054,87.921,150.054,87.496z M152.264,91.997h-0.274v-8.992h0.274V91.997z"
		/>
	<path d="M161.165,91.997h-7.35l5.363-8.1h-4.39v-0.892h6.154l-5.434,8.09h5.657V91.997z M158.539,84.251l-0.182,0.273h-3.569
		v-0.273H158.539z M161.357,83.004h0.325l-5.008,7.472h4.491v0.273h-5.018L161.357,83.004z"/>
	<path d="M163.233,80.237v-2.078h0.963v2.078H163.233z M163.233,91.997v-8.992h0.963v8.992H163.233z M164.551,78.159h0.274v2.078
		h-0.274V78.159z M164.551,83.004h0.274v8.992h-0.274V83.004z"/>
	<path d="M167.095,83.004h0.963v1.095c0.689-0.872,1.632-1.308,2.828-1.308c0.71,0,1.332,0.142,1.866,0.426
		c0.527,0.291,0.939,0.7,1.237,1.227c0.291,0.521,0.436,1.136,0.436,1.845v0.172v5.535h-0.963v-5.464v-0.142
		c0-0.568-0.105-1.048-0.314-1.44c-0.209-0.392-0.517-0.696-0.922-0.912c-0.399-0.209-0.875-0.314-1.43-0.314
		c-0.521,0-0.99,0.119-1.409,0.355c-0.413,0.23-0.737,0.561-0.974,0.994c-0.236,0.439-0.354,0.936-0.354,1.49v5.434h-0.963V83.004z
		 M173.117,91.997h-0.284v-5.464v-0.142c0-0.669-0.172-1.176-0.517-1.521s-0.852-0.517-1.521-0.517
		c-0.426,0-0.797,0.091-1.115,0.274c-0.318,0.183-0.561,0.439-0.73,0.771c-0.176,0.338-0.264,0.727-0.264,1.166v5.434h-0.274v-5.434
		c0-0.507,0.102-0.946,0.304-1.318c0.189-0.365,0.47-0.652,0.842-0.861c0.365-0.203,0.777-0.304,1.236-0.304
		c0.737,0,1.312,0.199,1.724,0.598c0.399,0.412,0.598,0.983,0.598,1.713v0.142V91.997z"/>
	<path d="M184.502,84.667v-1.663h0.973v8.992v0.172c0,0.649-0.064,1.189-0.192,1.622c-0.135,0.459-0.355,0.902-0.659,1.328
		c-0.446,0.608-1.003,1.078-1.673,1.409c-0.676,0.345-1.385,0.517-2.129,0.517c-0.534,0-1.051-0.091-1.551-0.273
		c-0.494-0.169-0.946-0.419-1.358-0.75c-0.399-0.304-0.767-0.713-1.105-1.227c-0.332-0.534-0.534-1.031-0.608-1.49h0.983
		c0.243,0.832,0.699,1.507,1.369,2.028c0.662,0.52,1.412,0.78,2.25,0.78c0.419,0,0.831-0.074,1.237-0.223
		c0.419-0.156,0.797-0.372,1.135-0.649c0.338-0.277,0.615-0.595,0.832-0.953c0.331-0.554,0.497-1.274,0.497-2.159v-0.213v-1.551
		c-0.48,0.602-1.034,1.058-1.663,1.369c-0.649,0.318-1.325,0.477-2.027,0.477c-0.852,0-1.639-0.213-2.362-0.639
		c-0.716-0.426-1.294-1.003-1.733-1.733c-0.433-0.716-0.649-1.5-0.649-2.352c0-0.845,0.213-1.625,0.639-2.342
		c0.419-0.723,0.987-1.298,1.703-1.724c0.723-0.419,1.504-0.628,2.342-0.628c0.473,0,0.959,0.078,1.46,0.233
		c0.493,0.162,0.936,0.385,1.328,0.669C183.944,83.991,184.265,84.316,184.502,84.667z M184.502,87.496
		c0-0.534-0.095-1.024-0.284-1.47c-0.189-0.453-0.453-0.852-0.791-1.196c-0.338-0.351-0.733-0.622-1.186-0.811
		c-0.466-0.196-0.957-0.294-1.47-0.294c-0.676,0-1.301,0.169-1.875,0.507c-0.568,0.332-1.021,0.788-1.358,1.369
		c-0.338,0.582-0.507,1.213-0.507,1.896c0,0.676,0.169,1.304,0.507,1.885c0.344,0.595,0.797,1.055,1.358,1.379
		c0.581,0.338,1.206,0.507,1.875,0.507c0.486,0,0.963-0.098,1.429-0.294c0.459-0.196,0.865-0.47,1.216-0.821
		c0.345-0.351,0.612-0.753,0.801-1.206C184.407,88.499,184.502,88.016,184.502,87.496z M184.157,87.496
		c0,0.622-0.152,1.196-0.456,1.723c-0.304,0.527-0.716,0.943-1.237,1.247c-0.514,0.304-1.078,0.456-1.693,0.456
		c-0.615,0-1.183-0.155-1.703-0.466c-0.534-0.311-0.946-0.73-1.237-1.257c-0.304-0.527-0.457-1.095-0.457-1.703
		c0-0.608,0.152-1.176,0.457-1.703c0.291-0.521,0.703-0.939,1.237-1.257c0.527-0.304,1.095-0.456,1.703-0.456
		c0.479,0,0.926,0.088,1.338,0.264c0.406,0.182,0.76,0.426,1.064,0.73c0.297,0.311,0.538,0.672,0.72,1.084
		C184.069,86.583,184.157,87.029,184.157,87.496z M177.527,93.304h0.294c0.183,0.622,0.554,1.142,1.115,1.562
		c0.561,0.419,1.176,0.628,1.845,0.628c0.527,0,1.031-0.135,1.511-0.406c0.48-0.277,0.865-0.648,1.156-1.115
		c0.284-0.466,0.426-1.082,0.426-1.845v-0.243v-0.406l0.273-0.233v0.669v0.213c-0.014,0.926-0.216,1.663-0.608,2.21
		c-0.318,0.446-0.72,0.794-1.207,1.044c-0.5,0.256-1.017,0.385-1.551,0.385c-0.75,0-1.426-0.229-2.027-0.689
		C178.152,94.619,177.744,94.027,177.527,93.304z M183.884,87.496c0-0.433-0.078-0.842-0.233-1.227
		c-0.149-0.358-0.375-0.689-0.679-0.993c-0.297-0.297-0.632-0.527-1.003-0.689c-0.385-0.155-0.784-0.233-1.196-0.233
		c-0.865,0-1.599,0.304-2.2,0.913c-0.608,0.615-0.912,1.358-0.912,2.23c0,0.878,0.304,1.622,0.912,2.23
		c0.595,0.615,1.328,0.923,2.2,0.923c0.412,0,0.811-0.081,1.196-0.244c0.378-0.162,0.716-0.392,1.014-0.689
		c0.297-0.297,0.52-0.632,0.669-1.004C183.806,88.327,183.884,87.921,183.884,87.496z"/>
	<path d="M192.084,78.159h6.782v0.973h-5.748v4.978h5.748v0.963h-5.748v5.951h5.748v0.973h-6.782V78.159z M193.463,79.477h5.403
		v0.273h-5.13v4.015h-0.273V79.477z M193.463,85.427h5.403v0.274h-5.13v4.704h5.13v0.274h-5.403V85.427z"/>
	<path d="M201.493,83.004l2.372,3.386l2.332-3.386h1.176l-2.92,4.217l3.335,4.775h-1.176l-2.768-3.903l-2.696,3.903h-1.176
		l3.305-4.775l-2.96-4.217H201.493z M206.186,91.997h-0.334l-1.997-2.818l-1.946,2.818h-0.345l2.281-3.305L206.186,91.997z
		 M203.865,85.295l1.582-2.291h0.334l-1.916,2.778l-1.946-2.778h0.334L203.865,85.295z"/>
	<path d="M209.268,83.004v13.838h-0.274V83.004H209.268z M210.586,90.354v6.488h-0.973V83.004h0.973v1.632
		c0.48-0.608,1.032-1.068,1.658-1.379c0.625-0.311,1.323-0.466,2.093-0.466c0.845,0,1.628,0.209,2.352,0.628
		c0.709,0.413,1.281,0.983,1.713,1.713c0.419,0.723,0.628,1.511,0.628,2.362s-0.209,1.639-0.628,2.362
		c-0.433,0.73-1.007,1.301-1.724,1.713c-0.723,0.419-1.504,0.628-2.342,0.628C212.81,92.199,211.559,91.584,210.586,90.354z
		 M210.586,87.496c0,0.676,0.169,1.304,0.507,1.885c0.345,0.588,0.794,1.048,1.348,1.379c0.575,0.338,1.2,0.507,1.875,0.507
		c0.487,0,0.963-0.098,1.43-0.294c0.466-0.196,0.872-0.466,1.216-0.811s0.615-0.75,0.811-1.216c0.189-0.446,0.284-0.929,0.284-1.45
		c0-0.541-0.095-1.034-0.284-1.48c-0.189-0.453-0.453-0.852-0.791-1.196c-0.358-0.351-0.757-0.618-1.196-0.801
		c-0.466-0.196-0.957-0.294-1.47-0.294c-0.689,0-1.314,0.169-1.875,0.507c-0.561,0.332-1.01,0.788-1.348,1.369
		C210.755,86.181,210.586,86.813,210.586,87.496z M210.931,87.496c0-0.608,0.152-1.176,0.456-1.703
		c0.291-0.521,0.703-0.939,1.237-1.257c0.527-0.304,1.095-0.456,1.703-0.456c0.602,0,1.166,0.152,1.693,0.456
		c0.527,0.318,0.943,0.737,1.247,1.257c0.297,0.534,0.446,1.102,0.446,1.703s-0.149,1.169-0.446,1.703
		c-0.304,0.534-0.72,0.953-1.247,1.257c-0.521,0.311-1.084,0.466-1.693,0.466c-0.615,0-1.183-0.155-1.703-0.466
		c-0.534-0.311-0.946-0.73-1.237-1.257C211.083,88.671,210.931,88.104,210.931,87.496z M211.204,87.496
		c0,0.574,0.139,1.102,0.416,1.582c0.27,0.473,0.648,0.855,1.135,1.146c0.48,0.284,1,0.426,1.561,0.426
		c0.413,0,0.811-0.081,1.196-0.244c0.385-0.162,0.727-0.392,1.024-0.689s0.521-0.632,0.669-1.004
		c0.155-0.385,0.233-0.791,0.233-1.216c0-0.433-0.078-0.842-0.233-1.227c-0.149-0.358-0.375-0.689-0.679-0.993
		c-0.298-0.297-0.636-0.527-1.014-0.689c-0.385-0.155-0.784-0.233-1.196-0.233c-0.561,0-1.081,0.142-1.561,0.426
		c-0.487,0.291-0.865,0.673-1.135,1.146C211.343,86.404,211.204,86.928,211.204,87.496z"/>
	<path d="M229.706,87.708h-8.445c0.054,0.676,0.253,1.277,0.598,1.804c0.358,0.547,0.814,0.973,1.369,1.277
		c0.554,0.311,1.176,0.466,1.865,0.466c1.23,0,2.254-0.547,3.072-1.642l0.75,0.517c-0.392,0.615-0.95,1.112-1.673,1.49
		c-0.73,0.385-1.474,0.578-2.23,0.578c-0.845,0-1.629-0.213-2.352-0.639c-0.365-0.216-0.689-0.466-0.974-0.75
		c-0.284-0.284-0.534-0.608-0.75-0.973c-0.426-0.723-0.639-1.507-0.639-2.352c0-0.852,0.209-1.639,0.628-2.362
		c0.412-0.716,0.983-1.284,1.713-1.703c0.723-0.419,1.514-0.628,2.372-0.628c0.791,0,1.548,0.199,2.271,0.598
		c0.716,0.412,1.291,0.963,1.724,1.652c0.25,0.385,0.429,0.791,0.537,1.217C229.651,86.685,229.706,87.167,229.706,87.708z
		 M221.332,86.806h7.33c-0.115-0.581-0.345-1.105-0.689-1.571c-0.352-0.466-0.788-0.832-1.308-1.095
		c-0.514-0.263-1.064-0.395-1.653-0.395c-0.595,0-1.156,0.132-1.683,0.395c-0.527,0.264-0.967,0.632-1.318,1.105
		C221.646,85.731,221.419,86.252,221.332,86.806z M227.647,89.27l0.223,0.152c-0.75,0.994-1.679,1.49-2.788,1.49
		c-0.554,0-1.075-0.122-1.562-0.365c-0.486-0.236-0.896-0.578-1.227-1.024c-0.331-0.433-0.547-0.922-0.649-1.47h0.304
		c0.108,0.736,0.466,1.352,1.075,1.845c0.595,0.494,1.284,0.74,2.068,0.74C226.107,90.638,226.958,90.182,227.647,89.27z
		 M228.114,86.198l0.101,0.264h-6.447c0.27-0.75,0.689-1.332,1.257-1.744c0.581-0.419,1.244-0.628,1.987-0.628
		c0.446,0,0.882,0.088,1.308,0.263c0.412,0.183,0.777,0.433,1.095,0.75C227.732,85.427,227.965,85.792,228.114,86.198z
		 M222.173,86.188h5.637l-0.071-0.152c-0.257-0.5-0.625-0.906-1.105-1.217c-0.493-0.304-1.034-0.456-1.622-0.456
		c-0.615,0-1.169,0.156-1.663,0.466C222.863,85.133,222.471,85.586,222.173,86.188z"/>
	<path d="M231.479,91.997v-8.992h0.963v1.105c0.507-0.797,1.253-1.237,2.24-1.318v0.983c-0.277,0.021-0.578,0.118-0.902,0.294
		c-0.304,0.169-0.581,0.409-0.831,0.72c-0.338,0.453-0.507,1.034-0.507,1.744v5.464H231.479z M234.693,84.12v0.273
		c-0.507,0.088-0.902,0.321-1.186,0.7c-0.291,0.372-0.436,0.852-0.436,1.439v5.464h-0.274v-5.464c0-0.649,0.169-1.193,0.507-1.632
		C233.642,84.475,234.105,84.214,234.693,84.12z"/>
	<path d="M236.153,80.237v-2.078h0.963v2.078H236.153z M236.153,91.997v-8.992h0.963v8.992H236.153z M237.471,78.159h0.274v2.078
		h-0.274V78.159z M237.471,83.004h0.274v8.992h-0.274V83.004z"/>
	<path d="M248.926,87.708h-8.445c0.054,0.676,0.253,1.277,0.598,1.804c0.358,0.547,0.814,0.973,1.369,1.277
		c0.554,0.311,1.176,0.466,1.865,0.466c1.23,0,2.254-0.547,3.072-1.642l0.75,0.517c-0.392,0.615-0.95,1.112-1.673,1.49
		c-0.73,0.385-1.474,0.578-2.23,0.578c-0.845,0-1.629-0.213-2.352-0.639c-0.365-0.216-0.689-0.466-0.974-0.75
		c-0.284-0.284-0.534-0.608-0.75-0.973c-0.426-0.723-0.639-1.507-0.639-2.352c0-0.852,0.209-1.639,0.628-2.362
		c0.412-0.716,0.983-1.284,1.713-1.703c0.723-0.419,1.514-0.628,2.372-0.628c0.791,0,1.548,0.199,2.271,0.598
		c0.716,0.412,1.291,0.963,1.724,1.652c0.25,0.385,0.429,0.791,0.537,1.217C248.872,86.685,248.926,87.167,248.926,87.708z
		 M240.553,86.806h7.33c-0.115-0.581-0.345-1.105-0.689-1.571c-0.352-0.466-0.788-0.832-1.308-1.095
		c-0.514-0.263-1.064-0.395-1.653-0.395c-0.595,0-1.156,0.132-1.683,0.395c-0.527,0.264-0.967,0.632-1.318,1.105
		C240.867,85.731,240.64,86.252,240.553,86.806z M246.868,89.27l0.223,0.152c-0.75,0.994-1.679,1.49-2.788,1.49
		c-0.554,0-1.075-0.122-1.562-0.365c-0.486-0.236-0.896-0.578-1.227-1.024c-0.331-0.433-0.547-0.922-0.649-1.47h0.304
		c0.108,0.736,0.466,1.352,1.075,1.845c0.595,0.494,1.284,0.74,2.068,0.74C245.328,90.638,246.179,90.182,246.868,89.27z
		 M247.335,86.198l0.101,0.264h-6.447c0.27-0.75,0.689-1.332,1.257-1.744c0.581-0.419,1.244-0.628,1.987-0.628
		c0.446,0,0.882,0.088,1.308,0.263c0.412,0.183,0.777,0.433,1.095,0.75C246.953,85.427,247.186,85.792,247.335,86.198z
		 M241.394,86.188h5.637l-0.071-0.152c-0.257-0.5-0.625-0.906-1.105-1.217c-0.493-0.304-1.034-0.456-1.622-0.456
		c-0.615,0-1.169,0.156-1.663,0.466C242.083,85.133,241.691,85.586,241.394,86.188z"/>
	<path d="M250.7,83.004h0.963v1.095c0.689-0.872,1.632-1.308,2.828-1.308c0.71,0,1.332,0.142,1.866,0.426
		c0.527,0.291,0.939,0.7,1.237,1.227c0.291,0.521,0.436,1.136,0.436,1.845v0.172v5.535h-0.963v-5.464v-0.142
		c0-0.568-0.105-1.048-0.314-1.44c-0.209-0.392-0.517-0.696-0.922-0.912c-0.399-0.209-0.875-0.314-1.43-0.314
		c-0.521,0-0.99,0.119-1.409,0.355c-0.413,0.23-0.737,0.561-0.974,0.994c-0.236,0.439-0.354,0.936-0.354,1.49v5.434H250.7V83.004z
		 M256.722,91.997h-0.284v-5.464v-0.142c0-0.669-0.172-1.176-0.517-1.521s-0.852-0.517-1.521-0.517
		c-0.426,0-0.797,0.091-1.115,0.274c-0.318,0.183-0.561,0.439-0.73,0.771c-0.176,0.338-0.264,0.727-0.264,1.166v5.434h-0.274v-5.434
		c0-0.507,0.102-0.946,0.304-1.318c0.189-0.365,0.47-0.652,0.842-0.861c0.365-0.203,0.777-0.304,1.236-0.304
		c0.737,0,1.312,0.199,1.724,0.598c0.399,0.412,0.598,0.983,0.598,1.713v0.142V91.997z"/>
	<path d="M266.992,83.603l-0.527,0.801c-0.643-0.439-1.338-0.659-2.088-0.659c-0.669,0-1.291,0.166-1.866,0.497
		c-0.574,0.331-1.031,0.788-1.368,1.369c-0.338,0.581-0.507,1.203-0.507,1.865c0,0.669,0.169,1.294,0.507,1.875
		c0.337,0.588,0.801,1.051,1.389,1.389c0.581,0.344,1.203,0.517,1.865,0.517c0.832,0,1.612-0.284,2.342-0.852l0.608,0.75
		c-0.352,0.311-0.798,0.564-1.338,0.76c-0.527,0.189-1.071,0.284-1.632,0.284c-0.852,0-1.639-0.213-2.362-0.639
		c-0.73-0.432-1.301-1.007-1.713-1.723c-0.419-0.723-0.628-1.504-0.628-2.342c0-0.852,0.213-1.636,0.639-2.352
		c0.419-0.723,0.987-1.298,1.703-1.724c0.723-0.419,1.497-0.628,2.322-0.628c0.297,0,0.611,0.034,0.942,0.102
		c0.352,0.074,0.669,0.169,0.953,0.284C266.529,83.305,266.782,83.447,266.992,83.603z M266.272,84.697l-0.152,0.233
		c-0.541-0.378-1.122-0.568-1.744-0.568c-0.555,0-1.071,0.139-1.551,0.416c-0.487,0.291-0.865,0.673-1.135,1.146
		c-0.284,0.473-0.426,0.99-0.426,1.551c0,0.568,0.142,1.095,0.426,1.582c0.284,0.487,0.669,0.872,1.156,1.156
		c0.479,0.284,0.997,0.426,1.551,0.426c0.669,0,1.284-0.209,1.845-0.628l0.041-0.031c0.034-0.034,0.057-0.054,0.071-0.061
		l0.172,0.223c-0.676,0.514-1.385,0.77-2.129,0.77c-0.615,0-1.183-0.155-1.703-0.466c-0.527-0.304-0.943-0.723-1.247-1.257
		c-0.311-0.521-0.466-1.091-0.466-1.713c0-0.439,0.088-0.872,0.264-1.297c0.169-0.413,0.419-0.777,0.75-1.095
		c0.337-0.324,0.703-0.571,1.095-0.74c0.385-0.169,0.814-0.253,1.288-0.253c0.317,0,0.642,0.05,0.973,0.152
		c0.331,0.102,0.598,0.223,0.801,0.365l0.041,0.031c0.007,0,0.015,0.003,0.025,0.01C266.227,84.653,266.245,84.67,266.272,84.697z"
		/>
	<path d="M277.545,87.708H269.1c0.054,0.676,0.253,1.277,0.598,1.804c0.358,0.547,0.814,0.973,1.369,1.277
		c0.554,0.311,1.176,0.466,1.865,0.466c1.23,0,2.254-0.547,3.072-1.642l0.75,0.517c-0.392,0.615-0.95,1.112-1.673,1.49
		c-0.73,0.385-1.474,0.578-2.23,0.578c-0.845,0-1.629-0.213-2.352-0.639c-0.365-0.216-0.689-0.466-0.974-0.75
		c-0.284-0.284-0.534-0.608-0.75-0.973c-0.426-0.723-0.639-1.507-0.639-2.352c0-0.852,0.209-1.639,0.628-2.362
		c0.412-0.716,0.983-1.284,1.713-1.703c0.723-0.419,1.514-0.628,2.372-0.628c0.791,0,1.548,0.199,2.271,0.598
		c0.716,0.412,1.291,0.963,1.724,1.652c0.25,0.385,0.429,0.791,0.537,1.217C277.491,86.685,277.545,87.167,277.545,87.708z
		 M269.171,86.806h7.33c-0.115-0.581-0.345-1.105-0.689-1.571c-0.352-0.466-0.788-0.832-1.308-1.095
		c-0.514-0.263-1.064-0.395-1.653-0.395c-0.595,0-1.156,0.132-1.683,0.395c-0.527,0.264-0.967,0.632-1.318,1.105
		C269.485,85.731,269.259,86.252,269.171,86.806z M275.487,89.27l0.223,0.152c-0.75,0.994-1.679,1.49-2.788,1.49
		c-0.554,0-1.075-0.122-1.562-0.365c-0.486-0.236-0.896-0.578-1.227-1.024c-0.331-0.433-0.547-0.922-0.649-1.47h0.304
		c0.108,0.736,0.466,1.352,1.075,1.845c0.595,0.494,1.284,0.74,2.068,0.74C273.946,90.638,274.798,90.182,275.487,89.27z
		 M275.954,86.198l0.101,0.264h-6.447c0.27-0.75,0.689-1.332,1.257-1.744c0.581-0.419,1.244-0.628,1.987-0.628
		c0.446,0,0.882,0.088,1.308,0.263c0.412,0.183,0.777,0.433,1.095,0.75C275.571,85.427,275.805,85.792,275.954,86.198z
		 M270.013,86.188h5.637l-0.071-0.152c-0.257-0.5-0.625-0.906-1.105-1.217c-0.493-0.304-1.034-0.456-1.622-0.456
		c-0.615,0-1.169,0.156-1.663,0.466C270.702,85.133,270.31,85.586,270.013,86.188z"/>
	<path d="M282.766,91.043l-0.081-0.05l0.132-0.244c0.669,0.419,1.328,0.73,1.977,0.933c0.649,0.21,1.335,0.314,2.058,0.314
		c0.832,0,1.595-0.172,2.291-0.517c0.689-0.345,1.23-0.824,1.622-1.439c0.392-0.602,0.588-1.277,0.588-2.027
		c0-0.744-0.24-1.423-0.72-2.038c-0.216-0.277-0.521-0.554-0.912-0.831c-0.392-0.277-1-0.632-1.825-1.064
		c-0.96-0.521-1.609-0.896-1.947-1.125c-0.338-0.236-0.591-0.473-0.76-0.709c-0.216-0.318-0.324-0.646-0.324-0.983
		c0-0.378,0.104-0.723,0.314-1.034c0.203-0.304,0.49-0.547,0.862-0.73c0.372-0.175,0.767-0.263,1.186-0.263s0.845,0.064,1.277,0.192
		c0.426,0.128,0.801,0.294,1.125,0.497l0.142,0.091c0.013,0.014,0.041,0.031,0.081,0.051l-0.132,0.253
		c-0.318-0.236-0.71-0.429-1.176-0.578c-0.466-0.149-0.916-0.223-1.348-0.223c-0.392,0-0.74,0.074-1.044,0.223
		c-0.311,0.148-0.558,0.361-0.74,0.639c-0.183,0.27-0.274,0.564-0.274,0.882c0,0.311,0.122,0.625,0.365,0.943
		c0.142,0.183,0.385,0.385,0.73,0.608c0.358,0.229,0.953,0.571,1.784,1.024c0.683,0.365,1.189,0.648,1.521,0.852
		c0.324,0.203,0.602,0.405,0.832,0.608c0.223,0.203,0.419,0.419,0.588,0.649c0.446,0.615,0.669,1.308,0.669,2.078
		c0,0.791-0.209,1.514-0.628,2.169c-0.413,0.643-0.983,1.149-1.713,1.521c-0.716,0.372-1.521,0.558-2.413,0.558
		c-0.737,0-1.43-0.098-2.079-0.294C284.151,91.787,283.475,91.476,282.766,91.043z M282.979,90.436l0.477-0.913l0.041,0.021
		l0.071,0.041c0.628,0.372,1.2,0.639,1.713,0.801c0.547,0.176,1.078,0.264,1.592,0.264c0.534,0,1.054-0.118,1.561-0.355
		c0.5-0.236,0.882-0.547,1.146-0.933c0.277-0.399,0.416-0.828,0.416-1.288c0-0.405-0.108-0.757-0.324-1.054
		c-0.189-0.271-0.45-0.524-0.781-0.76c-0.324-0.237-0.882-0.561-1.672-0.973c-0.974-0.521-1.69-0.939-2.149-1.257
		c-0.412-0.277-0.754-0.595-1.024-0.953c-0.378-0.52-0.568-1.098-0.568-1.733c0-0.628,0.169-1.209,0.507-1.744
		c0.331-0.521,0.794-0.939,1.389-1.257c0.588-0.304,1.216-0.457,1.886-0.457c0.534,0,1.105,0.091,1.713,0.274
		c0.622,0.196,1.132,0.436,1.531,0.72l-0.486,0.882c-0.865-0.581-1.801-0.872-2.808-0.872c-0.507,0-0.96,0.104-1.358,0.314
		c-0.413,0.216-0.733,0.504-0.963,0.862c-0.243,0.372-0.365,0.771-0.365,1.196c0,0.473,0.166,0.919,0.497,1.338
		c0.203,0.243,0.493,0.486,0.872,0.729c0.459,0.291,1.074,0.643,1.845,1.055c0.825,0.446,1.43,0.801,1.815,1.064
		c0.405,0.291,0.706,0.578,0.902,0.861c0.365,0.494,0.547,1.065,0.547,1.713c0,0.676-0.179,1.291-0.538,1.845
		c-0.358,0.547-0.855,0.98-1.49,1.298c-0.648,0.317-1.355,0.476-2.119,0.476C285.479,91.642,284.188,91.24,282.979,90.436z"/>
	<path d="M293.511,77.469h0.963v6.63c0.689-0.872,1.632-1.308,2.828-1.308c0.71,0,1.332,0.142,1.866,0.426
		c0.527,0.291,0.939,0.7,1.237,1.227c0.291,0.521,0.436,1.136,0.436,1.845v0.172v5.535h-0.963v-5.464v-0.142
		c0-0.568-0.105-1.048-0.314-1.44c-0.209-0.392-0.517-0.696-0.922-0.912c-0.399-0.209-0.875-0.314-1.43-0.314
		c-0.521,0-0.99,0.119-1.409,0.355c-0.413,0.23-0.737,0.561-0.974,0.994c-0.236,0.439-0.354,0.936-0.354,1.49v5.434h-0.963V77.469z
		 M294.829,77.469h0.274v5.586c-0.081,0.047-0.172,0.115-0.274,0.203V77.469z M299.533,91.997h-0.284v-5.464v-0.142
		c0-0.669-0.172-1.176-0.517-1.521s-0.852-0.517-1.521-0.517c-0.426,0-0.797,0.091-1.115,0.274c-0.318,0.183-0.561,0.439-0.73,0.771
		c-0.176,0.338-0.264,0.727-0.264,1.166v5.434h-0.274v-5.434c0-0.507,0.102-0.946,0.304-1.318c0.189-0.365,0.47-0.652,0.842-0.861
		c0.365-0.203,0.777-0.304,1.236-0.304c0.737,0,1.312,0.199,1.724,0.598c0.399,0.412,0.598,0.983,0.598,1.713v0.142V91.997z"/>
	<path d="M311.891,91.997h-0.973v-1.642c-0.973,1.23-2.22,1.845-3.741,1.845c-0.845,0-1.629-0.209-2.352-0.628
		c-0.716-0.412-1.284-0.983-1.703-1.713c-0.426-0.723-0.639-1.51-0.639-2.362c0-0.858,0.213-1.646,0.639-2.362
		c0.419-0.73,0.987-1.301,1.703-1.713c0.723-0.419,1.507-0.628,2.352-0.628c0.75,0,1.439,0.156,2.068,0.466
		c0.629,0.311,1.186,0.771,1.673,1.379v-1.632h0.973V91.997z M310.918,87.496c0-0.689-0.166-1.321-0.497-1.896
		c-0.332-0.574-0.781-1.03-1.349-1.369c-0.574-0.338-1.203-0.507-1.885-0.507c-0.683,0-1.312,0.169-1.886,0.507
		c-0.561,0.332-1.011,0.788-1.348,1.369c-0.338,0.582-0.507,1.213-0.507,1.896c0,0.676,0.169,1.304,0.507,1.885
		c0.344,0.595,0.797,1.055,1.358,1.379c0.574,0.338,1.199,0.507,1.875,0.507c0.676,0,1.301-0.169,1.875-0.507
		c0.567-0.331,1.02-0.791,1.358-1.379C310.752,88.807,310.918,88.178,310.918,87.496z M310.573,87.496
		c0,0.622-0.152,1.196-0.456,1.723c-0.304,0.527-0.716,0.943-1.237,1.247c-0.514,0.304-1.078,0.456-1.693,0.456
		c-0.615,0-1.183-0.155-1.703-0.466c-0.534-0.311-0.946-0.73-1.237-1.257c-0.304-0.527-0.457-1.095-0.457-1.703
		c0-0.608,0.152-1.176,0.457-1.703c0.291-0.521,0.703-0.939,1.237-1.257c0.527-0.304,1.095-0.456,1.703-0.456
		c0.479,0,0.926,0.088,1.338,0.264c0.406,0.182,0.76,0.426,1.064,0.73c0.297,0.311,0.538,0.672,0.72,1.084
		C310.485,86.583,310.573,87.029,310.573,87.496z M310.3,87.496c0-0.433-0.078-0.842-0.233-1.227
		c-0.156-0.372-0.378-0.703-0.669-0.993c-0.298-0.297-0.632-0.527-1.004-0.689c-0.392-0.155-0.794-0.233-1.206-0.233
		c-0.865,0-1.599,0.304-2.2,0.913c-0.608,0.615-0.912,1.358-0.912,2.23c0,0.878,0.304,1.622,0.912,2.23
		c0.595,0.615,1.328,0.923,2.2,0.923c0.412,0,0.814-0.081,1.206-0.244c0.372-0.155,0.71-0.385,1.014-0.689
		c0.291-0.297,0.51-0.632,0.659-1.004C310.222,88.327,310.3,87.921,310.3,87.496z M312.51,91.997h-0.274v-8.992h0.274V91.997z"/>
	<path d="M314.78,91.997v-8.992h0.963v1.105c0.507-0.797,1.253-1.237,2.24-1.318v0.983c-0.277,0.021-0.578,0.118-0.902,0.294
		c-0.304,0.169-0.581,0.409-0.831,0.72c-0.338,0.453-0.507,1.034-0.507,1.744v5.464H314.78z M317.994,84.12v0.273
		c-0.507,0.088-0.902,0.321-1.186,0.7c-0.291,0.372-0.436,0.852-0.436,1.439v5.464h-0.274v-5.464c0-0.649,0.169-1.193,0.507-1.632
		C316.943,84.475,317.406,84.214,317.994,84.12z"/>
	<path d="M319.454,80.237v-2.078h0.963v2.078H319.454z M319.454,91.997v-8.992h0.963v8.992H319.454z M320.771,78.159h0.274v2.078
		h-0.274V78.159z M320.771,83.004h0.274v8.992h-0.274V83.004z"/>
	<path d="M323.316,83.004h0.963v1.095c0.689-0.872,1.632-1.308,2.828-1.308c0.71,0,1.332,0.142,1.866,0.426
		c0.527,0.291,0.939,0.7,1.237,1.227c0.291,0.521,0.436,1.136,0.436,1.845v0.172v5.535h-0.963v-5.464v-0.142
		c0-0.568-0.105-1.048-0.314-1.44c-0.209-0.392-0.517-0.696-0.922-0.912c-0.399-0.209-0.875-0.314-1.43-0.314
		c-0.521,0-0.99,0.119-1.409,0.355c-0.413,0.23-0.737,0.561-0.974,0.994c-0.236,0.439-0.354,0.936-0.354,1.49v5.434h-0.963V83.004z
		 M329.338,91.997h-0.284v-5.464v-0.142c0-0.669-0.172-1.176-0.517-1.521s-0.852-0.517-1.521-0.517
		c-0.426,0-0.797,0.091-1.115,0.274c-0.318,0.183-0.561,0.439-0.73,0.771c-0.176,0.338-0.264,0.727-0.264,1.166v5.434h-0.274v-5.434
		c0-0.507,0.102-0.946,0.304-1.318c0.189-0.365,0.47-0.652,0.842-0.861c0.365-0.203,0.777-0.304,1.236-0.304
		c0.737,0,1.312,0.199,1.724,0.598c0.399,0.412,0.598,0.983,0.598,1.713v0.142V91.997z"/>
	<path d="M340.723,84.667v-1.663h0.973v8.992v0.172c0,0.649-0.064,1.189-0.192,1.622c-0.135,0.459-0.355,0.902-0.659,1.328
		c-0.446,0.608-1.003,1.078-1.673,1.409c-0.676,0.345-1.385,0.517-2.129,0.517c-0.534,0-1.051-0.091-1.551-0.273
		c-0.494-0.169-0.946-0.419-1.358-0.75c-0.399-0.304-0.767-0.713-1.105-1.227c-0.332-0.534-0.534-1.031-0.608-1.49h0.983
		c0.243,0.832,0.699,1.507,1.369,2.028c0.662,0.52,1.412,0.78,2.25,0.78c0.419,0,0.831-0.074,1.237-0.223
		c0.419-0.156,0.797-0.372,1.135-0.649c0.338-0.277,0.615-0.595,0.832-0.953c0.331-0.554,0.497-1.274,0.497-2.159v-0.213v-1.551
		c-0.48,0.602-1.034,1.058-1.663,1.369c-0.649,0.318-1.325,0.477-2.027,0.477c-0.852,0-1.639-0.213-2.362-0.639
		c-0.716-0.426-1.294-1.003-1.733-1.733c-0.433-0.716-0.649-1.5-0.649-2.352c0-0.845,0.213-1.625,0.639-2.342
		c0.419-0.723,0.987-1.298,1.703-1.724c0.723-0.419,1.504-0.628,2.342-0.628c0.473,0,0.959,0.078,1.46,0.233
		c0.493,0.162,0.936,0.385,1.328,0.669C340.165,83.991,340.486,84.316,340.723,84.667z M340.723,87.496
		c0-0.534-0.095-1.024-0.284-1.47c-0.189-0.453-0.453-0.852-0.791-1.196c-0.338-0.351-0.733-0.622-1.186-0.811
		c-0.466-0.196-0.957-0.294-1.47-0.294c-0.676,0-1.301,0.169-1.875,0.507c-0.568,0.332-1.021,0.788-1.358,1.369
		c-0.338,0.582-0.507,1.213-0.507,1.896c0,0.676,0.169,1.304,0.507,1.885c0.344,0.595,0.797,1.055,1.358,1.379
		c0.581,0.338,1.206,0.507,1.875,0.507c0.486,0,0.963-0.098,1.429-0.294c0.459-0.196,0.865-0.47,1.216-0.821
		c0.345-0.351,0.612-0.753,0.801-1.206C340.628,88.499,340.723,88.016,340.723,87.496z M340.378,87.496
		c0,0.622-0.152,1.196-0.456,1.723c-0.304,0.527-0.716,0.943-1.237,1.247c-0.514,0.304-1.078,0.456-1.693,0.456
		c-0.615,0-1.183-0.155-1.703-0.466c-0.534-0.311-0.946-0.73-1.237-1.257c-0.304-0.527-0.457-1.095-0.457-1.703
		c0-0.608,0.152-1.176,0.457-1.703c0.291-0.521,0.703-0.939,1.237-1.257c0.527-0.304,1.095-0.456,1.703-0.456
		c0.479,0,0.926,0.088,1.338,0.264c0.406,0.182,0.76,0.426,1.064,0.73c0.297,0.311,0.538,0.672,0.72,1.084
		C340.29,86.583,340.378,87.029,340.378,87.496z M333.748,93.304h0.294c0.183,0.622,0.554,1.142,1.115,1.562
		c0.561,0.419,1.176,0.628,1.845,0.628c0.527,0,1.031-0.135,1.511-0.406c0.48-0.277,0.865-0.648,1.156-1.115
		c0.284-0.466,0.426-1.082,0.426-1.845v-0.243v-0.406l0.273-0.233v0.669v0.213c-0.014,0.926-0.216,1.663-0.608,2.21
		c-0.318,0.446-0.72,0.794-1.207,1.044c-0.5,0.256-1.017,0.385-1.551,0.385c-0.75,0-1.426-0.229-2.027-0.689
		C334.373,94.619,333.964,94.027,333.748,93.304z M340.104,87.496c0-0.433-0.078-0.842-0.233-1.227
		c-0.149-0.358-0.375-0.689-0.679-0.993c-0.297-0.297-0.632-0.527-1.003-0.689c-0.385-0.155-0.784-0.233-1.196-0.233
		c-0.865,0-1.599,0.304-2.2,0.913c-0.608,0.615-0.912,1.358-0.912,2.23c0,0.878,0.304,1.622,0.912,2.23
		c0.595,0.615,1.328,0.923,2.2,0.923c0.412,0,0.811-0.081,1.196-0.244c0.378-0.162,0.716-0.392,1.014-0.689
		c0.297-0.297,0.52-0.632,0.669-1.004C340.026,88.327,340.104,87.921,340.104,87.496z"/>
</g>
<g>
	<circle fill="#E868A2" cx="25.838" cy="29.459" r="21.185"/>
	<path fill="#3A82C4" d="M37.207,57.337c4.961-0.861,6.775,4.656,9.306,7.588c1.125,1.987,1.816,5.523-0.685,6.502
		c-3.537,0.689-7.073,1.386-9.892-0.513c-3.197-2.555-1.243-7.591-0.198-11.315C36.106,58.638,36.581,57.83,37.207,57.337z"/>
	<path fill="#E62889" d="M43.372,36.532c-0.601,8.711-10.989,11.549-17.778,9.146c-1.2-1.608-5.396-2.206-3.596-4.825
		c3.396-3.835,2.998-11.083,8.989-13.103c5.994-2.03,12.59,1.778,12.248,7.109C43.29,35.36,43.343,35.908,43.372,36.532z"/>
	<path fill="#FFFFFF" d="M27.162,17.405c0,3.412-2.764,6.178-6.178,6.178c-3.415,0-6.179-2.767-6.179-6.178
		c0-3.415,2.764-6.182,6.179-6.182C24.397,11.223,27.162,13.99,27.162,17.405z"/>
	<circle fill="#FFFFFF" cx="13.279" cy="24.464" r="2.573"/>
	<circle fill="#FFFFFF" cx="9.958" cy="31.107" r="2.573"/>
	<path fill="#71C7D5" d="M45.106,75.511c-7.694,0-13.935-6.238-13.935-13.938c0-7.696,6.241-13.938,13.935-13.938
		c7.699,0,13.94,6.241,13.94,13.938C59.047,69.273,52.806,75.511,45.106,75.511z"/>
	<circle fill="#FFFFFF" cx="52.765" cy="59.354" r="4.065"/>
	<circle fill="#FFFFFF" cx="48.394" cy="53.313" r="1.692"/>
	<path fill="#F5D020" d="M37.002,79.254c2.52,2.958,2.165,7.403-0.792,9.925c-2.963,2.523-7.405,2.168-9.927-0.791
		c-2.524-2.959-2.168-7.403,0.79-9.927C30.036,75.937,34.479,76.293,37.002,79.254z"/>
	<path fill="#D2A127" d="M30.775,89.525c0.164-3.358-0.473-8.248,3.69-8.427c1.664-0.211,4.385,1.68,3.762,3.303
		c-0.762,2.545-2.545,4.38-4.984,5.294C32.023,90.237,31.118,90.19,30.775,89.525z"/>
	<path fill="#FFFFFF" d="M29.363,80.68c0.736,0.864,0.631,2.163-0.23,2.897c-0.865,0.736-2.161,0.633-2.898-0.231
		c-0.734-0.861-0.631-2.163,0.233-2.897C27.329,79.715,28.627,79.819,29.363,80.68z"/>
	<path fill="#FFFFFF" d="M28.039,84.712c0.306,0.356,0.263,0.898-0.096,1.204c-0.36,0.308-0.899,0.265-1.204-0.096
		c-0.31-0.358-0.264-0.897,0.095-1.206C27.192,84.311,27.731,84.351,28.039,84.712z"/>
	<circle fill="#FFFFFF" cx="44.245" cy="49.937" r="1.692"/>
</g>
<g>
	<path d="M103.183,36.007c-1.153-0.507-2.385-0.76-3.697-0.76c-2.695,0-5.04,1.121-7.034,3.36c-1.995,2.241-2.992,4.922-2.992,8.044
		c0,2.088,0.354,3.721,1.064,4.896c0.709,1.176,1.675,1.764,2.899,1.764c1.223,0,2.575-0.36,4.056-1.08
		c1.48-0.719,3.657-2.286,6.529-4.699v19.799c-3.776,1.743-7.788,2.615-12.034,2.615s-8.16-0.933-11.741-2.798
		c-5.691-2.98-9.441-7.644-11.25-13.99c-0.603-2.169-0.909-4.562-0.917-7.177c-0.009-2.616,0.27-5.12,0.837-7.512
		c0.567-2.392,1.392-4.603,2.474-6.63c2.163-4.076,5.199-7.269,9.108-9.581c3.91-2.311,8.391-3.457,13.444-3.437
		c3.847,0,6.932,0.497,9.255,1.49V36.007z"/>
	<path d="M127.969,69.888c-5.071,0-9.441-1.835-13.111-5.505c-3.918-3.893-5.877-8.794-5.877-14.705
		c0-5.91,1.835-10.746,5.505-14.507c3.67-3.761,8.2-5.642,13.59-5.642c5.39,0,9.92,1.84,13.59,5.52
		c3.67,3.68,5.514,8.602,5.532,14.766c0.018,3.954-0.86,7.451-2.633,10.492c-1.773,3.042-4.14,5.394-7.101,7.056
		S131.338,69.867,127.969,69.888z M133.128,41.725c-0.354-0.203-0.811-0.304-1.37-0.304c-0.558,0-1.174,0.188-1.848,0.563
		c-0.674,0.375-1.339,0.887-1.995,1.536c-1.383,1.379-2.544,3.052-3.484,5.018c-0.94,1.967-1.41,3.776-1.41,5.429
		c0,1.653,0.549,2.763,1.649,3.33c0.39,0.203,0.869,0.304,1.436,0.304s1.161-0.198,1.782-0.593c0.62-0.395,1.241-0.927,1.861-1.597
		c1.294-1.399,2.429-3.097,3.404-5.094c0.975-1.997,1.463-3.786,1.463-5.368S134.122,42.293,133.128,41.725z"/>
	<path d="M171.504,57.236c1.791,0,4.379-1.45,7.766-4.349v14.872c-5.815,2.514-11.179,2.869-16.089,1.064
		c-4.912-1.805-8.396-5.028-10.452-9.671c-1.028-2.352-1.542-5.109-1.542-8.272c0-6.366,1.915-11.527,5.745-15.48
		s8.812-5.931,14.946-5.931c2.535,0,4.822,0.437,6.861,1.308v11.709c-0.479-0.466-1.153-0.7-2.021-0.7
		c-0.869,0-1.8,0.314-2.792,0.943c-0.993,0.629-1.897,1.47-2.713,2.524c-1.879,2.433-2.815,4.932-2.806,7.497
		c0.009,2.565,0.687,4.01,2.035,4.334C170.795,57.165,171.15,57.216,171.504,57.236z"/>
	<path d="M203.232,69.888c-5.071,0-9.441-1.835-13.111-5.505c-3.918-3.893-5.877-8.794-5.877-14.705
		c0-5.91,1.835-10.746,5.505-14.507c3.67-3.761,8.2-5.642,13.59-5.642c5.39,0,9.92,1.84,13.59,5.52
		c3.67,3.68,5.514,8.602,5.532,14.766c0.018,3.954-0.86,7.451-2.633,10.492c-1.773,3.042-4.14,5.394-7.101,7.056
		S206.601,69.867,203.232,69.888z M208.391,41.725c-0.354-0.203-0.811-0.304-1.37-0.304c-0.558,0-1.174,0.188-1.848,0.563
		c-0.674,0.375-1.339,0.887-1.995,1.536c-1.383,1.379-2.544,3.052-3.484,5.018c-0.94,1.967-1.41,3.776-1.41,5.429
		c0,1.653,0.549,2.763,1.649,3.33c0.39,0.203,0.869,0.304,1.436,0.304s1.161-0.198,1.782-0.593c0.62-0.395,1.241-0.927,1.861-1.597
		c1.294-1.399,2.429-3.097,3.404-5.094c0.975-1.997,1.463-3.786,1.463-5.368S209.384,42.293,208.391,41.725z"/>
	<path d="M262.937,36.129c3.014-4.399,6.843-6.6,11.489-6.6c1.276,0,2.593,0.304,3.949,0.912c1.356,0.608,2.54,1.49,3.55,2.646
		c2.198,2.515,3.298,5.809,3.298,9.884v25.791h-15.425V49.268c0-2.494-0.346-4.456-1.037-5.885c-0.692-1.429-1.512-2.149-2.46-2.159
		c-0.949-0.01-1.574,0.695-1.875,2.114c-0.089,0.406-0.133,0.862-0.133,1.369v24.057h-15.079V49.268c0-2.494-0.377-4.456-1.13-5.885
		c-0.753-1.429-1.573-2.144-2.46-2.144c-1.418,0-2.127,1.308-2.127,3.923v23.601h-15.797V30.958h8.723l3.803,5.9
		c1.294-2.23,3.142-4.009,5.545-5.337c2.402-1.328,4.854-1.992,7.354-1.992c3.245,0,5.931,1.257,8.058,3.771
		C261.873,34.112,262.458,35.055,262.937,36.129z"/>
	<path d="M309.451,55.624h-1.462c-0.461,0-0.904-0.02-1.33-0.061c0,2.413,1.126,3.731,3.377,3.954
		c0.621,0.061,1.224,0.091,1.809,0.091c1.507,0,3.399-0.396,5.678-1.186c2.278-0.791,4.321-2.078,6.13-3.863l1.649,9.458
		c-3.954,3.914-9.929,5.87-17.925,5.87c-4.592,0-8.537-1.531-11.834-4.593c-3.582-3.345-5.373-7.978-5.373-13.898
		c0-4.46,1.011-8.465,3.032-12.013c1.879-3.244,4.423-5.708,7.632-7.391c3.209-1.683,6.675-2.524,10.398-2.524
		c4.823,0,8.471,1.207,10.944,3.619c2.473,2.413,3.706,5.394,3.697,8.941c-0.009,3.549-1.494,6.702-4.455,9.458
		C318.457,54.245,314.468,55.624,309.451,55.624z M313.041,41.786c0-1.784-0.727-2.676-2.181-2.676
		c-1.667,0.183-2.749,1.166-3.245,2.95c-0.249,0.852-0.421,1.84-0.519,2.965c-0.098,1.125-0.244,2.327-0.439,3.604l5.824-1.49
		l0.505-4.653L313.041,41.786z"/>
	<path d="M346.577,68.762h-15.079V17.577h15.079V68.762z"/>
	<path d="M370.751,69.888c-5.071,0-9.441-1.835-13.111-5.505c-3.918-3.893-5.877-8.794-5.877-14.705
		c0-5.91,1.835-10.746,5.505-14.507c3.67-3.761,8.2-5.642,13.59-5.642c5.39,0,9.92,1.84,13.59,5.52
		c3.67,3.68,5.514,8.602,5.532,14.766c0.018,3.954-0.86,7.451-2.633,10.492c-1.773,3.042-4.14,5.394-7.101,7.056
		S374.12,69.867,370.751,69.888z M375.911,41.725c-0.354-0.203-0.811-0.304-1.37-0.304c-0.558,0-1.174,0.188-1.848,0.563
		c-0.674,0.375-1.339,0.887-1.995,1.536c-1.383,1.379-2.544,3.052-3.484,5.018c-0.94,1.967-1.41,3.776-1.41,5.429
		c0,1.653,0.549,2.763,1.649,3.33c0.39,0.203,0.869,0.304,1.436,0.304s1.161-0.198,1.782-0.593c0.62-0.395,1.241-0.927,1.861-1.597
		c1.294-1.399,2.429-3.097,3.404-5.094c0.975-1.997,1.463-3.786,1.463-5.368S376.904,42.293,375.911,41.725z"/>
</g>
<g>
	<g>
		<g>
			<path fill="#F39800" d="M233.404,8.368c0.841-0.136,1.696-0.235,2.565-0.296c0.868-0.062,1.728-0.095,2.578-0.103
				c0.851-0.006,1.682,0.01,2.496,0.051c0.813,0.041,1.614,0.112,2.4,0.215c0.786,0.102,1.5,0.249,2.14,0.439
				s1.362,0.688,2.167,1.492c0.859,1.008,1.38,2.085,1.563,3.229c0.237,0.695,0.366,1.42,0.384,2.177s-0.018,1.51-0.109,2.259
				c-0.092,0.682-0.224,1.363-0.398,2.044c-0.174,0.682-0.462,1.506-0.864,2.474c-0.458,0.736-0.851,1.199-1.18,1.39
				c-0.329,0.191-0.699,0.378-1.111,0.562c-0.412,0.184-0.965,0.337-1.66,0.46c-1.061,0.15-2.139,0.239-3.236,0.266
				s-2.176,0.041-3.237,0.041c-1.006-0.013-2.012-0.041-3.017-0.082c-1.006-0.041-1.993-0.129-2.962-0.266
				c-2.012-1.008-2.414-2.18-1.207-3.516c1.005-0.477,1.906-0.729,2.702-0.756c0.796-0.027,1.578-0.034,2.345-0.02
				c0.805,0,1.614,0.003,2.428,0.01c0.813,0.007,1.998-0.01,3.552-0.051c0.365-1.935,0.356-3.945-0.028-6.03
				c-1.7-0.013-2.994-0.03-3.881-0.051c-0.887-0.021-1.779-0.038-2.674-0.051c-1.463-0.027-2.908-0.15-4.334-0.368
				c-0.695-0.15-1.216-0.463-1.563-0.94c-0.731-1.022-0.713-1.983,0.055-2.882C230.378,9.083,231.74,8.518,233.404,8.368z"/>
			<path fill="none" stroke="#F39800" stroke-miterlimit="10" d="M233.404,8.368c0.841-0.136,1.696-0.235,2.565-0.296
				c0.868-0.062,1.728-0.095,2.578-0.103c0.851-0.006,1.682,0.01,2.496,0.051c0.813,0.041,1.614,0.112,2.4,0.215
				c0.786,0.102,1.5,0.249,2.14,0.439s1.362,0.688,2.167,1.492c0.859,1.008,1.38,2.085,1.563,3.229
				c0.237,0.695,0.366,1.42,0.384,2.177s-0.018,1.51-0.109,2.259c-0.092,0.682-0.224,1.363-0.398,2.044
				c-0.174,0.682-0.462,1.506-0.864,2.474c-0.458,0.736-0.851,1.199-1.18,1.39c-0.329,0.191-0.699,0.378-1.111,0.562
				c-0.412,0.184-0.965,0.337-1.66,0.46c-1.061,0.15-2.139,0.239-3.236,0.266s-2.176,0.041-3.237,0.041
				c-1.006-0.013-2.012-0.041-3.017-0.082c-1.006-0.041-1.993-0.129-2.962-0.266c-2.012-1.008-2.414-2.18-1.207-3.516
				c1.005-0.477,1.906-0.729,2.702-0.756c0.796-0.027,1.578-0.034,2.345-0.02c0.805,0,1.614,0.003,2.428,0.01
				c0.813,0.007,1.998-0.01,3.552-0.051c0.365-1.935,0.356-3.945-0.028-6.03c-1.7-0.013-2.994-0.03-3.881-0.051
				c-0.887-0.021-1.779-0.038-2.674-0.051c-1.463-0.027-2.908-0.15-4.334-0.368c-0.695-0.15-1.216-0.463-1.563-0.94
				c-0.731-1.022-0.713-1.983,0.055-2.882C230.378,9.083,231.74,8.518,233.404,8.368z"/>
		</g>
		<g>
			<path fill="#F39800" d="M257.108,8.368c0.841-0.136,1.696-0.235,2.565-0.296c0.868-0.062,1.728-0.095,2.578-0.103
				c0.851-0.006,1.682,0.01,2.496,0.051c0.813,0.041,1.614,0.112,2.4,0.215c0.786,0.102,1.5,0.249,2.14,0.439
				s1.362,0.688,2.167,1.492c0.859,1.008,1.38,2.085,1.563,3.229c0.237,0.695,0.366,1.42,0.384,2.177s-0.018,1.51-0.109,2.259
				c-0.092,0.682-0.224,1.363-0.398,2.044c-0.174,0.682-0.462,1.506-0.864,2.474c-0.458,0.736-0.851,1.199-1.18,1.39
				c-0.329,0.191-0.699,0.378-1.111,0.562c-0.412,0.184-0.965,0.337-1.66,0.46c-1.061,0.15-2.139,0.239-3.236,0.266
				s-2.176,0.041-3.237,0.041c-1.006-0.013-2.012-0.041-3.017-0.082c-1.006-0.041-1.993-0.129-2.962-0.266
				c-2.012-1.008-2.414-2.18-1.207-3.516c1.005-0.477,1.906-0.729,2.702-0.756c0.796-0.027,1.578-0.034,2.345-0.02
				c0.805,0,1.614,0.003,2.428,0.01c0.813,0.007,1.998-0.01,3.552-0.051c0.365-1.935,0.356-3.945-0.028-6.03
				c-1.7-0.013-2.994-0.03-3.881-0.051c-0.887-0.021-1.779-0.038-2.674-0.051c-1.463-0.027-2.908-0.15-4.334-0.368
				c-0.695-0.15-1.216-0.463-1.563-0.94c-0.731-1.022-0.713-1.983,0.055-2.882C254.082,9.083,255.444,8.518,257.108,8.368z"/>
			<path fill="none" stroke="#F39800" stroke-miterlimit="10" d="M257.108,8.368c0.841-0.136,1.696-0.235,2.565-0.296
				c0.868-0.062,1.728-0.095,2.578-0.103c0.851-0.006,1.682,0.01,2.496,0.051c0.813,0.041,1.614,0.112,2.4,0.215
				c0.786,0.102,1.5,0.249,2.14,0.439s1.362,0.688,2.167,1.492c0.859,1.008,1.38,2.085,1.563,3.229
				c0.237,0.695,0.366,1.42,0.384,2.177s-0.018,1.51-0.109,2.259c-0.092,0.682-0.224,1.363-0.398,2.044
				c-0.174,0.682-0.462,1.506-0.864,2.474c-0.458,0.736-0.851,1.199-1.18,1.39c-0.329,0.191-0.699,0.378-1.111,0.562
				c-0.412,0.184-0.965,0.337-1.66,0.46c-1.061,0.15-2.139,0.239-3.236,0.266s-2.176,0.041-3.237,0.041
				c-1.006-0.013-2.012-0.041-3.017-0.082c-1.006-0.041-1.993-0.129-2.962-0.266c-2.012-1.008-2.414-2.18-1.207-3.516
				c1.005-0.477,1.906-0.729,2.702-0.756c0.796-0.027,1.578-0.034,2.345-0.02c0.805,0,1.614,0.003,2.428,0.01
				c0.813,0.007,1.998-0.01,3.552-0.051c0.365-1.935,0.356-3.945-0.028-6.03c-1.7-0.013-2.994-0.03-3.881-0.051
				c-0.887-0.021-1.779-0.038-2.674-0.051c-1.463-0.027-2.908-0.15-4.334-0.368c-0.695-0.15-1.216-0.463-1.563-0.94
				c-0.731-1.022-0.713-1.983,0.055-2.882C254.082,9.083,255.444,8.518,257.108,8.368z"/>
		</g>
		<g>
			<path fill="#F39800" d="M278.262,9.656c0.622-0.136,1.262-0.197,1.92-0.184c0.878,0.068,1.637,0.327,2.277,0.777
				c0.42,0.327,0.804,0.668,1.152,1.022c0.512,0.559,0.942,1.104,1.289,1.635c0.366,0.518,0.813,1.022,1.344,1.513
				c1.152-0.872,1.989-1.646,2.51-2.32c0.521-0.675,1.056-1.291,1.604-1.85c0.366-0.531,0.663-0.882,0.892-1.053
				c0.229-0.17,0.512-0.361,0.85-0.572c0.338-0.211,0.827-0.419,1.468-0.624c1.005-0.109,1.746-0.125,2.222-0.051
				c0.475,0.075,0.882,0.214,1.221,0.419c0.338,0.204,0.635,0.463,0.891,0.777c0.165,0.368,0.32,0.743,0.466,1.124
				c0.055,0.668,0.014,1.216-0.123,1.646s-0.32,0.872-0.549,1.329c-0.229,0.457-0.636,0.999-1.221,1.625
				c-0.585,0.627-1.216,1.192-1.893,1.697c-0.677,0.504-1.257,0.889-1.742,1.155c-0.485,0.266-0.956,0.535-1.413,0.807
				c0.987,0.75,1.792,1.349,2.414,1.799c0.585,0.423,1.133,0.866,1.646,1.329c0.329,0.259,0.53,0.586,0.604,0.981
				c0.073,0.395,0.055,0.726-0.055,0.991c-0.11,0.266-0.366,0.583-0.768,0.951c-0.787,0.409-1.747,0.572-2.88,0.49
				c-0.859-0.013-1.582-0.129-2.167-0.347c-0.731-0.164-1.417-0.436-2.057-0.818c-0.805-0.463-1.527-1.015-2.167-1.656
				c-0.366,0.354-0.635,0.59-0.809,0.706s-0.489,0.344-0.946,0.685c-0.786,0.572-1.902,1.022-3.346,1.349
				c-0.512,0.095-1.024,0.133-1.536,0.112c-0.512-0.021-0.987-0.153-1.426-0.398c-0.933-0.559-1.28-1.268-1.042-2.126
				c0.146-0.463,0.393-0.886,0.741-1.267c0.439-0.491,0.951-0.913,1.536-1.268c0.548-0.299,1.188-0.736,1.92-1.308
				c-1.006-0.613-1.765-1.172-2.276-1.676c-0.512-0.477-0.97-0.981-1.372-1.513c-0.402-0.49-0.723-1.117-0.96-1.88
				c-0.311-0.736-0.338-1.533-0.083-2.392C276.744,10.521,277.366,9.983,278.262,9.656z"/>
			<path fill="none" stroke="#F39800" stroke-miterlimit="10" d="M278.262,9.656c0.622-0.136,1.262-0.197,1.92-0.184
				c0.878,0.068,1.637,0.327,2.277,0.777c0.42,0.327,0.804,0.668,1.152,1.022c0.512,0.559,0.942,1.104,1.289,1.635
				c0.366,0.518,0.813,1.022,1.344,1.513c1.152-0.872,1.989-1.646,2.51-2.32c0.521-0.675,1.056-1.291,1.604-1.85
				c0.366-0.531,0.663-0.882,0.892-1.053c0.229-0.17,0.512-0.361,0.85-0.572c0.338-0.211,0.827-0.419,1.468-0.624
				c1.005-0.109,1.746-0.125,2.222-0.051c0.475,0.075,0.882,0.214,1.221,0.419c0.338,0.204,0.635,0.463,0.891,0.777
				c0.165,0.368,0.32,0.743,0.466,1.124c0.055,0.668,0.014,1.216-0.123,1.646s-0.32,0.872-0.549,1.329
				c-0.229,0.457-0.636,0.999-1.221,1.625c-0.585,0.627-1.216,1.192-1.893,1.697c-0.677,0.504-1.257,0.889-1.742,1.155
				c-0.485,0.266-0.956,0.535-1.413,0.807c0.987,0.75,1.792,1.349,2.414,1.799c0.585,0.423,1.133,0.866,1.646,1.329
				c0.329,0.259,0.53,0.586,0.604,0.981c0.073,0.395,0.055,0.726-0.055,0.991c-0.11,0.266-0.366,0.583-0.768,0.951
				c-0.787,0.409-1.747,0.572-2.88,0.49c-0.859-0.013-1.582-0.129-2.167-0.347c-0.731-0.164-1.417-0.436-2.057-0.818
				c-0.805-0.463-1.527-1.015-2.167-1.656c-0.366,0.354-0.635,0.59-0.809,0.706s-0.489,0.344-0.946,0.685
				c-0.786,0.572-1.902,1.022-3.346,1.349c-0.512,0.095-1.024,0.133-1.536,0.112c-0.512-0.021-0.987-0.153-1.426-0.398
				c-0.933-0.559-1.28-1.268-1.042-2.126c0.146-0.463,0.393-0.886,0.741-1.267c0.439-0.491,0.951-0.913,1.536-1.268
				c0.548-0.299,1.188-0.736,1.92-1.308c-1.006-0.613-1.765-1.172-2.276-1.676c-0.512-0.477-0.97-0.981-1.372-1.513
				c-0.402-0.49-0.723-1.117-0.96-1.88c-0.311-0.736-0.338-1.533-0.083-2.392C276.744,10.521,277.366,9.983,278.262,9.656z"/>
		</g>
		<g>
			<path fill="#F39800" d="M308.604,8.062c1.17-0.068,2.359-0.088,3.566-0.062c0.731,0.014,1.463,0.007,2.194-0.021
				c0.877,0.028,1.755,0.068,2.633,0.123c1.079,0.082,2.121,0.286,3.127,0.613c0.859,0.286,1.563,0.716,2.112,1.288
				c0.585,0.682,0.978,1.417,1.18,2.208c0.127,0.491,0.21,0.988,0.247,1.492c0.073,0.572,0.11,1.152,0.11,1.737
				c0,0.586-0.019,1.165-0.055,1.737c-0.019,0.491-0.064,0.981-0.137,1.472c-0.092,0.79-0.302,1.56-0.631,2.31
				c-0.512,1.363-1.481,2.419-2.908,3.168c-0.658,0.286-1.372,0.49-2.14,0.613c-0.859,0.137-1.71,0.232-2.551,0.287
				c-1.719,0.109-3.465,0.123-5.239,0.041c-0.841-0.027-1.673-0.068-2.496-0.123c-0.768-0.109-1.5-0.225-2.194-0.348
				c-0.677-0.204-1.262-0.432-1.755-0.685c-0.494-0.252-0.951-0.644-1.372-1.175c-0.421-0.531-0.682-1.141-0.782-1.83
				c-0.101-0.688-0.156-1.315-0.165-1.88c-0.01-0.565-0.005-1.141,0.014-1.727c-0.055-0.6-0.101-1.192-0.137-1.778
				c-0.018-0.559-0.018-1.111,0-1.656c0-0.818,0.128-1.622,0.384-2.412c0.439-1.008,1.252-1.812,2.441-2.412
				c0.622-0.299,1.289-0.524,2.002-0.674C306.876,8.191,307.726,8.089,308.604,8.062z M314.501,14.234
				c-1.116-0.164-2.213-0.19-3.292-0.082c-0.512,0.027-0.956,0.068-1.331,0.123c-0.375,0.055-0.718,0.167-1.028,0.337
				c-0.312,0.17-0.531,0.398-0.659,0.685c-0.128,0.6-0.183,1.206-0.165,1.819c-0.018,0.654,0,1.308,0.055,1.962
				c0.036,0.381,0.219,0.729,0.548,1.042c0.366,0.245,0.786,0.375,1.262,0.388c0.786,0.027,1.568,0.048,2.345,0.062
				s1.55-0.034,2.318-0.143c0.475-0.055,0.896-0.198,1.262-0.43c0.329-0.258,0.503-0.559,0.521-0.899
				c0.091-0.531,0.128-1.069,0.11-1.615c0-0.381-0.014-0.766-0.041-1.155c-0.027-0.388-0.133-0.773-0.315-1.155
				c-0.146-0.327-0.366-0.555-0.658-0.685C315.141,14.361,314.831,14.275,314.501,14.234z"/>
			<path fill="none" stroke="#F39800" stroke-miterlimit="10" d="M308.604,8.062c1.17-0.068,2.359-0.088,3.566-0.062
				c0.731,0.014,1.463,0.007,2.194-0.021c0.877,0.028,1.755,0.068,2.633,0.123c1.079,0.082,2.121,0.286,3.127,0.613
				c0.859,0.286,1.563,0.716,2.112,1.288c0.585,0.682,0.978,1.417,1.18,2.208c0.127,0.491,0.21,0.988,0.247,1.492
				c0.073,0.572,0.11,1.152,0.11,1.737c0,0.586-0.019,1.165-0.055,1.737c-0.019,0.491-0.064,0.981-0.137,1.472
				c-0.092,0.79-0.302,1.56-0.631,2.31c-0.512,1.363-1.481,2.419-2.908,3.168c-0.658,0.286-1.372,0.49-2.14,0.613
				c-0.859,0.137-1.71,0.232-2.551,0.287c-1.719,0.109-3.465,0.123-5.239,0.041c-0.841-0.027-1.673-0.068-2.496-0.123
				c-0.768-0.109-1.5-0.225-2.194-0.348c-0.677-0.204-1.262-0.432-1.755-0.685c-0.494-0.252-0.951-0.644-1.372-1.175
				c-0.421-0.531-0.682-1.141-0.782-1.83c-0.101-0.688-0.156-1.315-0.165-1.88c-0.01-0.565-0.005-1.141,0.014-1.727
				c-0.055-0.6-0.101-1.192-0.137-1.778c-0.018-0.559-0.018-1.111,0-1.656c0-0.818,0.128-1.622,0.384-2.412
				c0.439-1.008,1.252-1.812,2.441-2.412c0.622-0.299,1.289-0.524,2.002-0.674C306.876,8.191,307.726,8.089,308.604,8.062z
				 M314.501,14.234c-1.116-0.164-2.213-0.19-3.292-0.082c-0.512,0.027-0.956,0.068-1.331,0.123
				c-0.375,0.055-0.718,0.167-1.028,0.337c-0.312,0.17-0.531,0.398-0.659,0.685c-0.128,0.6-0.183,1.206-0.165,1.819
				c-0.018,0.654,0,1.308,0.055,1.962c0.036,0.381,0.219,0.729,0.548,1.042c0.366,0.245,0.786,0.375,1.262,0.388
				c0.786,0.027,1.568,0.048,2.345,0.062s1.55-0.034,2.318-0.143c0.475-0.055,0.896-0.198,1.262-0.43
				c0.329-0.258,0.503-0.559,0.521-0.899c0.091-0.531,0.128-1.069,0.11-1.615c0-0.381-0.014-0.766-0.041-1.155
				c-0.027-0.388-0.133-0.773-0.315-1.155c-0.146-0.327-0.366-0.555-0.658-0.685C315.141,14.361,314.831,14.275,314.501,14.234z"/>
		</g>
	</g>
</g>
<g>
</g>
<g>
</g>
<g>
</g>
<g>
</g>
<g>
</g>
<g>
</g>
</svg>
