<?xml version="1.0" encoding="utf-8"?>
<!-- Generator: Adobe Illustrator 16.0.0, SVG Export Plug-In . SVG Version: 6.00 Build 0)  -->
<!DOCTYPE svg PUBLIC "-//W3C//DTD SVG 1.1//EN" "http://www.w3.org/Graphics/SVG/1.1/DTD/svg11.dtd">
<svg version="1.1" id="レイヤー_1" xmlns="http://www.w3.org/2000/svg" xmlns:xlink="http://www.w3.org/1999/xlink" x="0px"
	 y="0px" width="396.851px" height="113.386px" viewBox="0 0 396.851 113.386" enable-background="new 0 0 396.851 113.386"
	 xml:space="preserve">
<g>
	<circle fill="#E868A2" cx="26.031" cy="35.724" r="21.377"/>
	<path fill="#3A82C4" d="M37.503,63.854c5.005-0.869,6.836,4.698,9.39,7.656c1.136,2.005,1.833,5.573-0.691,6.562
		c-3.568,0.695-7.137,1.398-9.981-0.518c-3.226-2.578-1.254-7.66-0.201-11.418C36.392,65.166,36.87,64.351,37.503,63.854z"/>
	<path fill="#E62889" d="M43.724,42.86c-0.606,8.79-11.089,11.654-17.94,9.23c-1.21-1.623-5.445-2.227-3.628-4.869
		c3.426-3.87,3.024-11.184,9.07-13.222c6.049-2.048,12.704,1.795,12.359,7.173C43.64,41.677,43.694,42.231,43.724,42.86z"/>
	<path fill="#FFFFFF" d="M27.366,23.559c0,3.443-2.79,6.235-6.234,6.235c-3.446,0-6.235-2.792-6.235-6.235
		c0-3.445,2.789-6.237,6.235-6.237C24.577,17.321,27.366,20.114,27.366,23.559z"/>
	<circle fill="#FFFFFF" cx="13.358" cy="30.682" r="2.597"/>
	<circle fill="#FFFFFF" cx="10.006" cy="37.386" r="2.597"/>
	<path fill="#71C7D5" d="M45.474,82.192c-7.764,0-14.061-6.294-14.061-14.063c0-7.767,6.297-14.064,14.061-14.064
		c7.77,0,14.067,6.297,14.067,14.064C59.541,75.898,53.243,82.192,45.474,82.192z"/>
	<circle fill="#FFFFFF" cx="53.202" cy="65.89" r="4.102"/>
	<circle fill="#FFFFFF" cx="48.791" cy="59.794" r="1.707"/>
	<path fill="#F5D020" d="M37.296,85.97c2.543,2.984,2.185,7.471-0.798,10.016c-2.991,2.546-7.472,2.188-10.017-0.798
		c-2.548-2.986-2.188-7.471,0.797-10.018C30.266,82.622,34.749,82.982,37.296,85.97z"/>
	<path fill="#D2A127" d="M31.012,96.335c0.166-3.39-0.477-8.323,3.724-8.504c1.68-0.213,4.425,1.694,3.796,3.333
		c-0.769,2.567-2.568,4.419-5.03,5.342C32.271,97.053,31.358,97.005,31.012,96.335z"/>
	<path fill="#FFFFFF" d="M29.587,87.409c0.743,0.872,0.637,2.182-0.232,2.924c-0.873,0.742-2.181,0.638-2.924-0.234
		c-0.74-0.869-0.637-2.183,0.235-2.924C27.535,86.436,28.845,86.54,29.587,87.409z"/>
	<path fill="#FFFFFF" d="M28.251,91.478c0.309,0.359,0.266,0.906-0.097,1.214c-0.363,0.311-0.907,0.268-1.215-0.097
		c-0.312-0.361-0.266-0.905,0.096-1.217C27.396,91.072,27.941,91.113,28.251,91.478z"/>
	<circle fill="#FFFFFF" cx="44.604" cy="56.386" r="1.708"/>
</g>
<g>
	<path d="M100.919,17.84c4.46,0,8.414,0.957,11.861,2.87c3.447,1.913,5.181,3.852,5.202,5.815c-0.184,1.985-1.177,2.987-2.977,3.008
		c-1.433,0-3.084-0.803-4.957-2.409c-1.872-1.606-4.936-2.409-9.191-2.409c-5.115,0.021-9.77,2.537-13.963,7.549
		c-4.194,5.013-6.302,10.833-6.322,17.462c0.02,7.223,1.923,12.261,5.708,15.114c3.785,2.854,8.102,4.281,12.951,4.281
		c5.258,0,8.879-0.261,10.864-0.782s3.816-0.783,5.494-0.783c1.739,0.308,2.619,1.382,2.639,3.223c0,2.292-1.898,3.698-5.693,4.22
		c-3.795,0.521-8.312,0.864-13.549,1.028c-16.695-0.267-25.104-9.125-25.227-26.577c0.041-9.084,2.803-16.598,8.286-22.541
		C87.528,20.966,93.819,17.943,100.919,17.84z"/>
	<path d="M138.575,39.415l2.271,0.062c4.133,0.266,8.066,1.872,11.8,4.818c3.733,2.946,6.041,7.366,6.92,13.258
		c0,5.688-1.601,10.102-4.803,13.243c-3.203,3.141-7.841,4.905-13.918,5.294l-1.626-0.215c-5.34-0.532-9.667-2.44-12.981-5.724
		c-3.314-3.284-5.064-7.943-5.248-13.979c0.287-4.685,1.867-8.572,4.742-11.662C128.605,41.42,132.887,39.722,138.575,39.415z
		 M127.22,56.632c0.471,6.833,4.255,11.242,11.355,13.227l2.486,0.308c6.445-0.614,10.475-3.652,12.092-9.115l0.307-1.442
		c0-4.071-1.31-7.324-3.928-9.759c-2.619-2.434-5.841-3.805-9.667-4.112l-1.565-0.031C131.833,46.545,128.141,50.187,127.22,56.632z
		"/>
	<path d="M180.404,39.783c7.283,0.226,10.976,1.903,11.079,5.033c-0.041,1.698-0.962,2.599-2.762,2.701
		c-1.085-0.021-2.266-0.312-3.545-0.875c-1.279-0.562-2.818-0.844-4.619-0.844c-2.68,0.021-5.238,1.335-7.672,3.943
		c-2.435,2.609-3.672,5.867-3.713,9.775c0.409,6.772,3.11,10.22,8.102,10.342c2.885-0.02,5.268-0.874,7.151-2.563
		c1.882-1.688,3.043-3.038,3.483-4.051s1.386-1.529,2.839-1.55c1.575,0.082,2.424,1.146,2.547,3.191
		c-0.184,2.374-1.693,4.793-4.527,7.259c-2.834,2.465-6.511,3.748-11.033,3.852c-9.514-0.104-14.383-5.351-14.608-15.744
		c0.02-5.872,1.493-10.644,4.419-14.316S174.757,40.213,180.404,39.783z"/>
	<path d="M214.009,39.415l2.271,0.062c4.133,0.266,8.066,1.872,11.8,4.818c3.733,2.946,6.041,7.366,6.92,13.258
		c0,5.688-1.601,10.102-4.803,13.243c-3.203,3.141-7.841,4.905-13.918,5.294l-1.626-0.215c-5.34-0.532-9.667-2.44-12.981-5.724
		c-3.314-3.284-5.064-7.943-5.248-13.979c0.287-4.685,1.867-8.572,4.742-11.662C204.04,41.42,208.321,39.722,214.009,39.415z
		 M202.654,56.632c0.471,6.833,4.255,11.242,11.355,13.227l2.486,0.308c6.445-0.614,10.475-3.652,12.092-9.115l0.307-1.442
		c0-4.071-1.31-7.324-3.928-9.759c-2.619-2.434-5.841-3.805-9.667-4.112l-1.565-0.031C207.268,46.545,203.575,50.187,202.654,56.632
		z"/>
	<path d="M272.318,55.189c-0.061,4.706-0.266,10.403-0.614,17.094c-0.205,2.066-1.371,3.1-3.499,3.1
		c-1.739-0.163-2.608-1.258-2.608-3.284c0.327-7.324,0.491-13.268,0.491-17.83c-0.205-5.176-1.811-7.938-4.818-8.286
		c-2.987,0-5.852,1.949-8.593,5.846c-2.742,3.898-4.624,10.756-5.646,20.578c-0.103,1.923-1.197,2.977-3.284,3.161
		c-2.107-0.246-3.161-1.433-3.161-3.561c-0.144-9.432-0.45-16.285-0.921-20.562c-0.471-4.276-0.706-7.191-0.706-8.747
		c0.266-1.923,1.299-2.895,3.1-2.916c2.168,0.184,3.324,1.524,3.468,4.021l0.491,8.102c3.438-7.877,8.583-11.887,15.437-12.03
		c4.685,0.143,7.856,2.179,9.514,6.107c3.13-3.969,7.12-6.004,11.969-6.107c7.14,0.205,10.761,4.849,10.864,13.933
		c0,4.952-0.205,11.11-0.614,18.475c-0.205,2.066-1.371,3.1-3.499,3.1c-1.739-0.163-2.608-1.258-2.608-3.284
		c0.327-7.324,0.491-13.268,0.491-17.83c-0.205-5.176-1.811-7.938-4.818-8.286c-2.987,0-5.852,1.944-8.593,5.831
		C273.485,52.775,272.871,53.9,272.318,55.189z"/>
	<path d="M314.148,59.117c-3.908-0.204-6.966-0.316-9.176-0.337c0.184,6.998,3.917,10.691,11.201,11.079
		c3.273-0.04,6.302-1.289,9.084-3.744c1.33-1.247,2.659-1.872,3.989-1.872c1.698,0.021,2.558,1.013,2.578,2.978
		c-0.042,1.596-1.55,3.447-4.527,5.555c-2.977,2.107-7.453,3.181-13.426,3.223c-9.678-1.146-14.915-6.629-15.713-16.45
		c0.02-6.035,1.984-10.828,5.892-14.377c3.908-3.55,8.838-5.458,14.792-5.724c8.449,0.307,12.715,3.611,12.797,9.913
		C331.62,55.619,325.79,58.872,314.148,59.117z M325.472,49.481c0-2.782-2.199-4.174-6.598-4.174
		c-6.67,0.573-10.895,3.028-12.674,7.366c3.007,0.164,5.555,0.266,7.642,0.307C321.534,52.979,325.411,51.813,325.472,49.481z"/>
	<path d="M342.106,21.462l-0.429,41.154c0.409,4.46,1.565,6.69,3.468,6.69c0.572,0,1.12-0.093,1.642-0.276
		c0.522-0.185,1.13-0.276,1.826-0.276c1.084,0,1.729,0.809,1.934,2.425c-0.042,2.926-1.985,4.398-5.831,4.419
		c-6.077-0.471-9.166-4.899-9.268-13.288l0.491-40.909c0.102-2.189,1.156-3.284,3.161-3.284
		C341.083,18.117,342.085,19.232,342.106,21.462z"/>
	<path d="M370.279,39.415l2.271,0.062c4.133,0.266,8.066,1.872,11.8,4.818c3.733,2.946,6.041,7.366,6.92,13.258
		c0,5.688-1.601,10.102-4.803,13.243c-3.203,3.141-7.841,4.905-13.918,5.294l-1.626-0.215c-5.34-0.532-9.667-2.44-12.981-5.724
		c-3.314-3.284-5.064-7.943-5.248-13.979c0.287-4.685,1.867-8.572,4.742-11.662C360.31,41.42,364.591,39.722,370.279,39.415z
		 M358.924,56.632c0.471,6.833,4.255,11.242,11.355,13.227l2.486,0.308c6.445-0.614,10.475-3.652,12.092-9.115l0.307-1.442
		c0-4.071-1.31-7.324-3.928-9.759c-2.619-2.434-5.841-3.805-9.667-4.112l-1.565-0.031C363.538,46.545,359.845,50.187,358.924,56.632
		z"/>
</g>
<g>
	<g>
		<g>
			<path fill="#F39800" d="M246.124,17.746c0.8-0.136,1.613-0.235,2.439-0.297c0.826-0.061,1.644-0.095,2.453-0.102
				c0.809-0.007,1.6,0.01,2.374,0.051c0.774,0.041,1.535,0.112,2.283,0.215c0.748,0.102,1.426,0.249,2.036,0.44
				c0.608,0.191,1.295,0.688,2.061,1.493c0.817,1.01,1.313,2.087,1.487,3.233c0.226,0.695,0.348,1.422,0.365,2.179
				c0.018,0.757-0.017,1.511-0.104,2.261c-0.087,0.682-0.213,1.364-0.378,2.046c-0.166,0.682-0.439,1.507-0.822,2.476
				c-0.435,0.737-0.809,1.201-1.122,1.392c-0.313,0.191-0.666,0.378-1.057,0.563c-0.391,0.184-0.917,0.337-1.579,0.46
				c-1.009,0.15-2.035,0.239-3.079,0.266c-1.044,0.028-2.071,0.041-3.079,0.041c-0.957-0.013-1.914-0.041-2.871-0.082
				c-0.957-0.041-1.896-0.13-2.818-0.266c-1.914-1.009-2.296-2.182-1.148-3.519c0.957-0.478,1.813-0.729,2.57-0.757
				c0.757-0.027,1.5-0.034,2.231-0.021c0.766,0,1.535,0.003,2.31,0.01c0.774,0.007,1.9-0.01,3.379-0.051
				c0.348-1.937,0.339-3.949-0.026-6.036c-1.618-0.013-2.849-0.031-3.692-0.051s-1.692-0.037-2.544-0.051
				c-1.392-0.027-2.766-0.15-4.123-0.369c-0.661-0.15-1.157-0.463-1.487-0.941c-0.695-1.023-0.678-1.985,0.052-2.885
				C243.245,18.462,244.541,17.896,246.124,17.746z"/>
			<path fill="none" stroke="#F39800" stroke-miterlimit="10" d="M246.124,17.746c0.8-0.136,1.613-0.235,2.439-0.297
				c0.826-0.061,1.644-0.095,2.453-0.102c0.809-0.007,1.6,0.01,2.374,0.051c0.774,0.041,1.535,0.112,2.283,0.215
				c0.748,0.102,1.426,0.249,2.036,0.44c0.608,0.191,1.295,0.688,2.061,1.493c0.817,1.01,1.313,2.087,1.487,3.233
				c0.226,0.695,0.348,1.422,0.365,2.179c0.018,0.757-0.017,1.511-0.104,2.261c-0.087,0.682-0.213,1.364-0.378,2.046
				c-0.166,0.682-0.439,1.507-0.822,2.476c-0.435,0.737-0.809,1.201-1.122,1.392c-0.313,0.191-0.666,0.378-1.057,0.563
				c-0.391,0.184-0.917,0.337-1.579,0.46c-1.009,0.15-2.035,0.239-3.079,0.266c-1.044,0.028-2.071,0.041-3.079,0.041
				c-0.957-0.013-1.914-0.041-2.871-0.082c-0.957-0.041-1.896-0.13-2.818-0.266c-1.914-1.009-2.296-2.182-1.148-3.519
				c0.957-0.478,1.813-0.729,2.57-0.757c0.757-0.027,1.5-0.034,2.231-0.021c0.766,0,1.535,0.003,2.31,0.01
				c0.774,0.007,1.9-0.01,3.379-0.051c0.348-1.937,0.339-3.949-0.026-6.036c-1.618-0.013-2.849-0.031-3.692-0.051
				s-1.692-0.037-2.544-0.051c-1.392-0.027-2.766-0.15-4.123-0.369c-0.661-0.15-1.157-0.463-1.487-0.941
				c-0.695-1.023-0.678-1.985,0.052-2.885C243.245,18.462,244.541,17.896,246.124,17.746z"/>
		</g>
		<g>
			<path fill="#F39800" d="M267.338,17.746c0.8-0.136,1.613-0.235,2.439-0.297c0.826-0.061,1.644-0.095,2.453-0.102
				c0.809-0.007,1.6,0.01,2.374,0.051c0.774,0.041,1.535,0.112,2.283,0.215c0.748,0.102,1.426,0.249,2.036,0.44
				c0.608,0.191,1.295,0.688,2.061,1.493c0.817,1.01,1.313,2.087,1.487,3.233c0.226,0.695,0.348,1.422,0.365,2.179
				c0.018,0.757-0.017,1.511-0.104,2.261c-0.087,0.682-0.213,1.364-0.378,2.046c-0.166,0.682-0.439,1.507-0.822,2.476
				c-0.435,0.737-0.809,1.201-1.122,1.392c-0.313,0.191-0.666,0.378-1.057,0.563c-0.391,0.184-0.917,0.337-1.579,0.46
				c-1.009,0.15-2.035,0.239-3.079,0.266c-1.044,0.028-2.071,0.041-3.079,0.041c-0.957-0.013-1.914-0.041-2.871-0.082
				c-0.957-0.041-1.896-0.13-2.818-0.266c-1.914-1.009-2.296-2.182-1.148-3.519c0.957-0.478,1.813-0.729,2.57-0.757
				c0.757-0.027,1.5-0.034,2.231-0.021c0.766,0,1.535,0.003,2.31,0.01c0.774,0.007,1.9-0.01,3.379-0.051
				c0.348-1.937,0.339-3.949-0.026-6.036c-1.618-0.013-2.849-0.031-3.692-0.051s-1.692-0.037-2.544-0.051
				c-1.392-0.027-2.766-0.15-4.123-0.369c-0.661-0.15-1.157-0.463-1.487-0.941c-0.695-1.023-0.678-1.985,0.052-2.885
				C264.458,18.462,265.755,17.896,267.338,17.746z"/>
			<path fill="none" stroke="#F39800" stroke-miterlimit="10" d="M267.338,17.746c0.8-0.136,1.613-0.235,2.439-0.297
				c0.826-0.061,1.644-0.095,2.453-0.102c0.809-0.007,1.6,0.01,2.374,0.051c0.774,0.041,1.535,0.112,2.283,0.215
				c0.748,0.102,1.426,0.249,2.036,0.44c0.608,0.191,1.295,0.688,2.061,1.493c0.817,1.01,1.313,2.087,1.487,3.233
				c0.226,0.695,0.348,1.422,0.365,2.179c0.018,0.757-0.017,1.511-0.104,2.261c-0.087,0.682-0.213,1.364-0.378,2.046
				c-0.166,0.682-0.439,1.507-0.822,2.476c-0.435,0.737-0.809,1.201-1.122,1.392c-0.313,0.191-0.666,0.378-1.057,0.563
				c-0.391,0.184-0.917,0.337-1.579,0.46c-1.009,0.15-2.035,0.239-3.079,0.266c-1.044,0.028-2.071,0.041-3.079,0.041
				c-0.957-0.013-1.914-0.041-2.871-0.082c-0.957-0.041-1.896-0.13-2.818-0.266c-1.914-1.009-2.296-2.182-1.148-3.519
				c0.957-0.478,1.813-0.729,2.57-0.757c0.757-0.027,1.5-0.034,2.231-0.021c0.766,0,1.535,0.003,2.31,0.01
				c0.774,0.007,1.9-0.01,3.379-0.051c0.348-1.937,0.339-3.949-0.026-6.036c-1.618-0.013-2.849-0.031-3.692-0.051
				s-1.692-0.037-2.544-0.051c-1.392-0.027-2.766-0.15-4.123-0.369c-0.661-0.15-1.157-0.463-1.487-0.941
				c-0.695-1.023-0.678-1.985,0.052-2.885C264.458,18.462,265.755,17.896,267.338,17.746z"/>
		</g>
		<g>
			<path fill="#F39800" d="M286.125,19.035c0.591-0.136,1.2-0.198,1.827-0.184c0.835,0.068,1.557,0.327,2.166,0.777
				c0.4,0.327,0.765,0.668,1.096,1.023c0.486,0.56,0.896,1.105,1.226,1.637c0.348,0.519,0.774,1.023,1.279,1.514
				c1.096-0.873,1.892-1.647,2.387-2.322c0.496-0.675,1.005-1.292,1.527-1.852c0.348-0.532,0.63-0.883,0.848-1.054
				c0.217-0.17,0.487-0.361,0.809-0.573c0.322-0.211,0.787-0.419,1.396-0.624c0.957-0.109,1.661-0.126,2.113-0.051
				c0.452,0.075,0.839,0.215,1.161,0.419s0.604,0.464,0.848,0.777c0.157,0.368,0.304,0.744,0.444,1.125
				c0.052,0.668,0.013,1.217-0.118,1.647s-0.305,0.873-0.522,1.33c-0.217,0.458-0.604,1-1.161,1.627s-1.157,1.193-1.8,1.698
				c-0.644,0.505-1.196,0.89-1.657,1.156c-0.461,0.266-0.909,0.535-1.344,0.808c0.939,0.75,1.705,1.35,2.296,1.8
				c0.557,0.423,1.079,0.866,1.566,1.33c0.313,0.259,0.504,0.586,0.574,0.982c0.069,0.396,0.052,0.726-0.052,0.992
				c-0.104,0.266-0.348,0.583-0.73,0.952c-0.748,0.409-1.661,0.573-2.74,0.491c-0.818-0.013-1.505-0.129-2.062-0.348
				c-0.696-0.164-1.348-0.437-1.957-0.818c-0.766-0.463-1.453-1.016-2.061-1.657c-0.348,0.355-0.605,0.59-0.77,0.706
				c-0.166,0.116-0.465,0.345-0.9,0.686c-0.749,0.573-1.81,1.023-3.184,1.351c-0.487,0.095-0.975,0.133-1.461,0.112
				s-0.939-0.153-1.356-0.399c-0.887-0.559-1.218-1.269-0.992-2.128c0.139-0.463,0.374-0.886,0.705-1.269
				c0.417-0.491,0.904-0.914,1.461-1.268c0.522-0.3,1.131-0.737,1.827-1.31c-0.957-0.614-1.679-1.173-2.166-1.678
				c-0.487-0.477-0.922-0.982-1.305-1.514c-0.383-0.491-0.688-1.118-0.914-1.882c-0.295-0.736-0.321-1.534-0.078-2.394
				C284.681,19.901,285.272,19.362,286.125,19.035z"/>
			<path fill="none" stroke="#F39800" stroke-miterlimit="10" d="M286.125,19.035c0.591-0.136,1.2-0.198,1.827-0.184
				c0.835,0.068,1.557,0.327,2.166,0.777c0.4,0.327,0.765,0.668,1.096,1.023c0.486,0.56,0.896,1.105,1.226,1.637
				c0.348,0.519,0.774,1.023,1.279,1.514c1.096-0.873,1.892-1.647,2.387-2.322c0.496-0.675,1.005-1.292,1.527-1.852
				c0.348-0.532,0.63-0.883,0.848-1.054c0.217-0.17,0.487-0.361,0.809-0.573c0.322-0.211,0.787-0.419,1.396-0.624
				c0.957-0.109,1.661-0.126,2.113-0.051c0.452,0.075,0.839,0.215,1.161,0.419s0.604,0.464,0.848,0.777
				c0.157,0.368,0.304,0.744,0.444,1.125c0.052,0.668,0.013,1.217-0.118,1.647s-0.305,0.873-0.522,1.33
				c-0.217,0.458-0.604,1-1.161,1.627s-1.157,1.193-1.8,1.698c-0.644,0.505-1.196,0.89-1.657,1.156
				c-0.461,0.266-0.909,0.535-1.344,0.808c0.939,0.75,1.705,1.35,2.296,1.8c0.557,0.423,1.079,0.866,1.566,1.33
				c0.313,0.259,0.504,0.586,0.574,0.982c0.069,0.396,0.052,0.726-0.052,0.992c-0.104,0.266-0.348,0.583-0.73,0.952
				c-0.748,0.409-1.661,0.573-2.74,0.491c-0.818-0.013-1.505-0.129-2.062-0.348c-0.696-0.164-1.348-0.437-1.957-0.818
				c-0.766-0.463-1.453-1.016-2.061-1.657c-0.348,0.355-0.605,0.59-0.77,0.706c-0.166,0.116-0.465,0.345-0.9,0.686
				c-0.749,0.573-1.81,1.023-3.184,1.351c-0.487,0.095-0.975,0.133-1.461,0.112s-0.939-0.153-1.356-0.399
				c-0.887-0.559-1.218-1.269-0.992-2.128c0.139-0.463,0.374-0.886,0.705-1.269c0.417-0.491,0.904-0.914,1.461-1.268
				c0.522-0.3,1.131-0.737,1.827-1.31c-0.957-0.614-1.679-1.173-2.166-1.678c-0.487-0.477-0.922-0.982-1.305-1.514
				c-0.383-0.491-0.688-1.118-0.914-1.882c-0.295-0.736-0.321-1.534-0.078-2.394C284.681,19.901,285.272,19.362,286.125,19.035z"/>
		</g>
		<g>
			<path fill="#F39800" d="M313.653,17.438c1.113-0.068,2.244-0.088,3.392-0.061c0.696,0.014,1.392,0.007,2.087-0.021
				c0.835,0.027,1.67,0.068,2.505,0.123c1.026,0.082,2.018,0.287,2.975,0.614c0.818,0.287,1.487,0.716,2.009,1.289
				c0.557,0.682,0.931,1.419,1.122,2.209c0.122,0.491,0.2,0.989,0.235,1.494c0.069,0.573,0.104,1.153,0.104,1.739
				s-0.018,1.166-0.052,1.739c-0.018,0.491-0.061,0.982-0.13,1.473c-0.087,0.792-0.287,1.562-0.6,2.312
				c-0.487,1.364-1.409,2.421-2.766,3.171c-0.626,0.286-1.305,0.491-2.035,0.614c-0.818,0.136-1.627,0.232-2.427,0.286
				c-1.635,0.109-3.297,0.123-4.984,0.041c-0.8-0.027-1.592-0.068-2.375-0.123c-0.73-0.109-1.426-0.225-2.087-0.348
				c-0.644-0.205-1.2-0.433-1.67-0.685s-0.905-0.645-1.305-1.177c-0.4-0.532-0.648-1.142-0.744-1.831
				c-0.096-0.688-0.148-1.316-0.157-1.882c-0.009-0.565-0.004-1.142,0.013-1.729c-0.052-0.6-0.096-1.193-0.13-1.78
				c-0.017-0.559-0.017-1.111,0-1.657c0-0.818,0.122-1.623,0.365-2.414c0.417-1.009,1.191-1.814,2.322-2.414
				c0.591-0.3,1.227-0.525,1.905-0.675C312.009,17.568,312.818,17.466,313.653,17.438z M319.263,23.618
				c-1.061-0.164-2.105-0.191-3.131-0.082c-0.487,0.027-0.909,0.068-1.266,0.123c-0.357,0.055-0.683,0.167-0.979,0.338
				c-0.296,0.17-0.505,0.399-0.626,0.685c-0.122,0.601-0.174,1.208-0.156,1.821c-0.018,0.655,0,1.309,0.052,1.964
				c0.035,0.382,0.208,0.73,0.522,1.043c0.348,0.246,0.748,0.375,1.2,0.389c0.748,0.028,1.491,0.048,2.231,0.062
				c0.739,0.014,1.474-0.034,2.205-0.143c0.452-0.055,0.852-0.198,1.201-0.43c0.313-0.259,0.478-0.559,0.496-0.9
				c0.087-0.532,0.122-1.071,0.104-1.616c0-0.382-0.013-0.767-0.04-1.156c-0.026-0.389-0.126-0.774-0.3-1.156
				c-0.14-0.327-0.348-0.556-0.626-0.686C319.872,23.744,319.577,23.658,319.263,23.618z"/>
			<path fill="none" stroke="#F39800" stroke-miterlimit="10" d="M313.653,17.438c1.113-0.068,2.244-0.088,3.392-0.061
				c0.696,0.014,1.392,0.007,2.087-0.021c0.835,0.027,1.67,0.068,2.505,0.123c1.026,0.082,2.018,0.287,2.975,0.614
				c0.818,0.287,1.487,0.716,2.009,1.289c0.557,0.682,0.931,1.419,1.122,2.209c0.122,0.491,0.2,0.989,0.235,1.494
				c0.069,0.573,0.104,1.153,0.104,1.739s-0.018,1.166-0.052,1.739c-0.018,0.491-0.061,0.982-0.13,1.473
				c-0.087,0.792-0.287,1.562-0.6,2.312c-0.487,1.364-1.409,2.421-2.766,3.171c-0.626,0.286-1.305,0.491-2.035,0.614
				c-0.818,0.136-1.627,0.232-2.427,0.286c-1.635,0.109-3.297,0.123-4.984,0.041c-0.8-0.027-1.592-0.068-2.375-0.123
				c-0.73-0.109-1.426-0.225-2.087-0.348c-0.644-0.205-1.2-0.433-1.67-0.685s-0.905-0.645-1.305-1.177
				c-0.4-0.532-0.648-1.142-0.744-1.831c-0.096-0.688-0.148-1.316-0.157-1.882c-0.009-0.565-0.004-1.142,0.013-1.729
				c-0.052-0.6-0.096-1.193-0.13-1.78c-0.017-0.559-0.017-1.111,0-1.657c0-0.818,0.122-1.623,0.365-2.414
				c0.417-1.009,1.191-1.814,2.322-2.414c0.591-0.3,1.227-0.525,1.905-0.675C312.009,17.568,312.818,17.466,313.653,17.438z
				 M319.263,23.618c-1.061-0.164-2.105-0.191-3.131-0.082c-0.487,0.027-0.909,0.068-1.266,0.123
				c-0.357,0.055-0.683,0.167-0.979,0.338c-0.296,0.17-0.505,0.399-0.626,0.685c-0.122,0.601-0.174,1.208-0.156,1.821
				c-0.018,0.655,0,1.309,0.052,1.964c0.035,0.382,0.208,0.73,0.522,1.043c0.348,0.246,0.748,0.375,1.2,0.389
				c0.748,0.028,1.491,0.048,2.231,0.062c0.739,0.014,1.474-0.034,2.205-0.143c0.452-0.055,0.852-0.198,1.201-0.43
				c0.313-0.259,0.478-0.559,0.496-0.9c0.087-0.532,0.122-1.071,0.104-1.616c0-0.382-0.013-0.767-0.04-1.156
				c-0.026-0.389-0.126-0.774-0.3-1.156c-0.14-0.327-0.348-0.556-0.626-0.686C319.872,23.744,319.577,23.658,319.263,23.618z"/>
		</g>
	</g>
</g>
<g>
	<path d="M117.849,95.309l5.412-14.383l5.412,14.383h-1.115l-1.739-4.747h-5.115l-1.739,4.747H117.849z M127.178,95.309h-0.297
		l-1.503-4.123h-4.235l-1.504,4.123h-0.296l1.606-4.398h4.624L127.178,95.309z M125.439,89.58l-2.179-5.872l-2.179,5.872H125.439z
		 M124.938,89.232h-0.297l-1.381-3.724l-1.381,3.724h-0.297l1.678-4.521L124.938,89.232z"/>
	<path d="M129.817,95.309v-9.074h0.972v1.085c0.614-0.866,1.507-1.3,2.68-1.3c0.457,0,0.89,0.068,1.299,0.205
		c0.395,0.144,0.75,0.345,1.063,0.604c0.314,0.279,0.553,0.59,0.716,0.931c0.341-0.565,0.774-0.999,1.299-1.299
		c0.518-0.293,1.104-0.44,1.759-0.44c0.621,0,1.21,0.147,1.77,0.44c0.552,0.293,0.972,0.692,1.258,1.196
		c0.3,0.519,0.45,1.208,0.45,2.067v5.585h-0.982v-5.585c0-0.859-0.222-1.538-0.665-2.036c-0.443-0.484-1.064-0.727-1.862-0.727
		c-0.498,0-0.948,0.119-1.35,0.358c-0.409,0.231-0.727,0.566-0.952,1.002c-0.225,0.43-0.337,0.911-0.337,1.442v5.545h-0.972v-5.596
		V89.59c-0.007-0.518-0.113-0.975-0.317-1.37s-0.495-0.706-0.87-0.932c-0.382-0.218-0.818-0.327-1.309-0.327
		c-0.505,0-0.958,0.116-1.361,0.348c-0.402,0.226-0.726,0.557-0.972,0.992c-0.232,0.416-0.348,0.894-0.348,1.433v5.575H129.817z
		 M135.607,95.309h-0.276v-5.596V89.59c0-0.613-0.167-1.098-0.501-1.452c-0.341-0.361-0.794-0.542-1.36-0.542
		c-0.607,0-1.098,0.197-1.473,0.593c-0.382,0.402-0.573,0.918-0.573,1.545v5.575h-0.276v-5.575c0-0.702,0.218-1.282,0.655-1.739
		c0.43-0.45,0.985-0.675,1.667-0.675c0.416,0,0.791,0.092,1.125,0.276c0.334,0.197,0.586,0.464,0.757,0.798
		c0.17,0.334,0.255,0.732,0.255,1.196v0.123V95.309z M141.756,95.309h-0.276v-5.585c0-0.696-0.16-1.225-0.481-1.586
		c-0.32-0.361-0.794-0.542-1.422-0.542c-0.58,0-1.057,0.197-1.432,0.593c-0.382,0.402-0.573,0.928-0.573,1.575v5.545h-0.287v-5.545
		c0-0.723,0.218-1.313,0.655-1.77c0.43-0.45,0.975-0.675,1.637-0.675c0.471,0,0.866,0.096,1.187,0.286
		c0.32,0.191,0.566,0.468,0.736,0.829s0.256,0.791,0.256,1.289V95.309z"/>
	<path d="M154.226,95.309h-0.982v-1.657c-0.982,1.241-2.24,1.862-3.775,1.862c-0.853,0-1.644-0.212-2.374-0.635
		c-0.723-0.416-1.295-0.992-1.718-1.729c-0.43-0.729-0.645-1.524-0.645-2.384c0-0.866,0.215-1.66,0.645-2.384
		c0.423-0.736,0.996-1.313,1.718-1.729c0.73-0.423,1.521-0.635,2.374-0.635c0.757,0,1.453,0.157,2.087,0.471
		c0.634,0.314,1.197,0.777,1.688,1.392v-1.647h0.982V95.309z M153.244,90.767c0-0.695-0.167-1.333-0.501-1.913
		c-0.334-0.579-0.788-1.04-1.36-1.381c-0.58-0.341-1.214-0.512-1.903-0.512c-0.689,0-1.323,0.171-1.903,0.512
		c-0.566,0.334-1.02,0.795-1.36,1.381c-0.341,0.587-0.512,1.225-0.512,1.913c0,0.682,0.17,1.316,0.512,1.902
		c0.348,0.601,0.805,1.064,1.371,1.392c0.58,0.341,1.21,0.512,1.893,0.512c0.682,0,1.313-0.171,1.893-0.512
		c0.573-0.334,1.03-0.798,1.371-1.392C153.076,92.09,153.244,91.455,153.244,90.767z M152.896,90.767
		c0,0.628-0.153,1.207-0.46,1.739c-0.307,0.531-0.723,0.951-1.248,1.258c-0.519,0.307-1.088,0.461-1.708,0.461
		s-1.193-0.157-1.719-0.471c-0.539-0.313-0.955-0.736-1.248-1.269c-0.307-0.532-0.46-1.105-0.46-1.719
		c0-0.614,0.153-1.187,0.46-1.719c0.293-0.525,0.709-0.947,1.248-1.269c0.532-0.307,1.105-0.46,1.719-0.46
		c0.484,0,0.934,0.089,1.35,0.266c0.409,0.185,0.768,0.43,1.074,0.736c0.3,0.314,0.542,0.679,0.727,1.095
		C152.807,89.846,152.896,90.296,152.896,90.767z M152.62,90.767c0-0.437-0.079-0.849-0.235-1.238
		c-0.157-0.375-0.382-0.709-0.675-1.002c-0.3-0.3-0.638-0.532-1.013-0.695c-0.396-0.157-0.801-0.235-1.217-0.235
		c-0.873,0-1.613,0.307-2.22,0.92c-0.614,0.621-0.921,1.371-0.921,2.251c0,0.887,0.307,1.637,0.921,2.251
		c0.6,0.62,1.34,0.931,2.22,0.931c0.416,0,0.822-0.082,1.217-0.246c0.375-0.156,0.716-0.389,1.023-0.695
		c0.293-0.3,0.515-0.638,0.665-1.013C152.541,91.605,152.62,91.196,152.62,90.767z M154.85,95.309h-0.276v-9.074h0.276V95.309z"/>
	<path d="M163.831,95.309h-7.417l5.412-8.174h-4.43v-0.9h6.209l-5.483,8.164h5.708V95.309z M161.182,87.493l-0.184,0.276h-3.601
		v-0.276H161.182z M164.025,86.234h0.328l-5.054,7.54h4.532v0.276h-5.063L164.025,86.234z"/>
	<path d="M165.918,83.442v-2.098h0.972v2.098H165.918z M165.918,95.309v-9.074h0.972v9.074H165.918z M167.248,81.345h0.276v2.098
		h-0.276V81.345z M167.248,86.234h0.276v9.074h-0.276V86.234z"/>
	<path d="M169.815,86.234h0.972v1.105c0.695-0.88,1.647-1.32,2.854-1.32c0.716,0,1.343,0.144,1.882,0.43
		c0.532,0.294,0.948,0.706,1.248,1.238c0.293,0.525,0.44,1.146,0.44,1.861v0.175v5.585h-0.972v-5.514v-0.144
		c0-0.572-0.105-1.057-0.317-1.452s-0.522-0.703-0.931-0.921c-0.402-0.211-0.883-0.317-1.442-0.317
		c-0.525,0-0.999,0.119-1.422,0.358c-0.416,0.231-0.743,0.566-0.982,1.002c-0.239,0.443-0.358,0.945-0.358,1.504v5.483h-0.972
		V86.234z M175.892,95.309h-0.287v-5.514v-0.144c0-0.675-0.174-1.187-0.521-1.534s-0.859-0.521-1.535-0.521
		c-0.43,0-0.805,0.092-1.125,0.275c-0.321,0.185-0.566,0.444-0.737,0.778c-0.177,0.341-0.266,0.732-0.266,1.176v5.483h-0.276v-5.483
		c0-0.512,0.103-0.954,0.307-1.33c0.19-0.368,0.474-0.657,0.849-0.869c0.369-0.204,0.784-0.307,1.248-0.307
		c0.744,0,1.323,0.201,1.739,0.604c0.402,0.416,0.604,0.992,0.604,1.729v0.144V95.309z"/>
	<path d="M187.38,87.912v-1.678h0.982v9.074v0.174c0,0.654-0.065,1.2-0.194,1.637c-0.137,0.464-0.358,0.91-0.665,1.34
		c-0.45,0.614-1.013,1.088-1.688,1.422c-0.682,0.349-1.398,0.522-2.148,0.522c-0.539,0-1.061-0.093-1.565-0.276
		c-0.498-0.171-0.955-0.423-1.371-0.757c-0.402-0.308-0.774-0.72-1.115-1.238c-0.334-0.539-0.539-1.04-0.614-1.504h0.992
		c0.246,0.839,0.706,1.521,1.381,2.046c0.668,0.525,1.425,0.788,2.271,0.788c0.423,0,0.839-0.075,1.248-0.225
		c0.423-0.157,0.805-0.376,1.146-0.655s0.621-0.601,0.839-0.962c0.334-0.559,0.501-1.285,0.501-2.179v-0.215v-1.565
		c-0.484,0.607-1.043,1.068-1.678,1.382c-0.655,0.32-1.337,0.48-2.046,0.48c-0.859,0-1.654-0.215-2.384-0.645
		c-0.723-0.43-1.306-1.013-1.749-1.749c-0.437-0.723-0.655-1.515-0.655-2.373c0-0.853,0.215-1.641,0.645-2.363
		c0.423-0.729,0.996-1.31,1.718-1.739c0.73-0.423,1.518-0.635,2.363-0.635c0.478,0,0.968,0.079,1.473,0.235
		c0.498,0.164,0.944,0.389,1.34,0.676C186.817,87.23,187.142,87.558,187.38,87.912z M187.38,90.767c0-0.539-0.096-1.033-0.287-1.483
		c-0.191-0.457-0.457-0.859-0.798-1.207c-0.341-0.354-0.74-0.627-1.197-0.818c-0.471-0.198-0.965-0.297-1.483-0.297
		c-0.682,0-1.313,0.171-1.893,0.512c-0.573,0.334-1.03,0.795-1.371,1.381c-0.341,0.587-0.512,1.225-0.512,1.913
		c0,0.682,0.17,1.316,0.512,1.902c0.348,0.601,0.805,1.064,1.371,1.392c0.586,0.341,1.217,0.512,1.893,0.512
		c0.491,0,0.972-0.099,1.442-0.297c0.464-0.197,0.873-0.474,1.228-0.828c0.348-0.355,0.617-0.761,0.808-1.218
		C187.285,91.779,187.38,91.292,187.38,90.767z M187.032,90.767c0,0.628-0.153,1.207-0.46,1.739
		c-0.307,0.531-0.723,0.951-1.248,1.258c-0.519,0.307-1.088,0.461-1.708,0.461s-1.193-0.157-1.719-0.471
		c-0.539-0.313-0.955-0.736-1.248-1.269c-0.307-0.532-0.46-1.105-0.46-1.719c0-0.614,0.153-1.187,0.46-1.719
		c0.293-0.525,0.709-0.947,1.248-1.269c0.532-0.307,1.105-0.46,1.719-0.46c0.484,0,0.934,0.089,1.35,0.266
		c0.409,0.185,0.768,0.43,1.074,0.736c0.3,0.314,0.542,0.679,0.727,1.095C186.944,89.846,187.032,90.296,187.032,90.767z
		 M180.342,96.628h0.296c0.184,0.628,0.559,1.152,1.125,1.576c0.566,0.422,1.187,0.634,1.862,0.634c0.532,0,1.04-0.137,1.524-0.409
		c0.484-0.279,0.873-0.654,1.166-1.125c0.286-0.471,0.43-1.092,0.43-1.862v-0.245v-0.409l0.276-0.235v0.675v0.215
		c-0.014,0.935-0.218,1.678-0.614,2.23c-0.32,0.45-0.726,0.801-1.217,1.054c-0.504,0.259-1.026,0.389-1.565,0.389
		c-0.757,0-1.439-0.232-2.046-0.696C180.973,97.954,180.561,97.357,180.342,96.628z M186.756,90.767
		c0-0.437-0.079-0.849-0.235-1.238c-0.15-0.361-0.378-0.695-0.686-1.002c-0.3-0.3-0.638-0.532-1.013-0.695
		c-0.389-0.157-0.791-0.235-1.207-0.235c-0.873,0-1.613,0.307-2.22,0.92c-0.614,0.621-0.921,1.371-0.921,2.251
		c0,0.887,0.307,1.637,0.921,2.251c0.6,0.62,1.34,0.931,2.22,0.931c0.416,0,0.818-0.082,1.207-0.246
		c0.382-0.163,0.723-0.396,1.023-0.695s0.525-0.638,0.675-1.013C186.678,91.605,186.756,91.196,186.756,90.767z"/>
	<path d="M195.032,81.345h6.843v0.982h-5.8v5.022h5.8v0.972h-5.8v6.005h5.8v0.982h-6.843V81.345z M196.423,82.675h5.452v0.276H196.7
		v4.051h-0.276V82.675z M196.423,88.68h5.452v0.276H196.7v4.746h5.176v0.276h-5.452V88.68z"/>
	<path d="M204.525,86.234l2.394,3.417l2.353-3.417h1.187l-2.946,4.256l3.366,4.818h-1.187l-2.792-3.938l-2.721,3.938h-1.187
		l3.335-4.818l-2.987-4.256H204.525z M209.261,95.309h-0.337l-2.015-2.844l-1.964,2.844h-0.348l2.302-3.335L209.261,95.309z
		 M206.919,88.547l1.596-2.313h0.337l-1.933,2.804l-1.964-2.804h0.338L206.919,88.547z"/>
	<path d="M212.371,86.234v13.964h-0.276V86.234H212.371z M213.701,93.651v6.547h-0.982V86.234h0.982v1.647
		c0.484-0.614,1.042-1.077,1.672-1.392c0.631-0.313,1.335-0.471,2.112-0.471c0.853,0,1.644,0.212,2.374,0.635
		c0.716,0.416,1.292,0.992,1.729,1.729c0.422,0.73,0.634,1.524,0.634,2.384s-0.211,1.654-0.634,2.384
		c-0.437,0.736-1.017,1.313-1.739,1.729c-0.73,0.423-1.518,0.635-2.363,0.635C215.945,95.514,214.683,94.893,213.701,93.651z
		 M213.701,90.767c0,0.682,0.17,1.316,0.511,1.902c0.348,0.594,0.801,1.058,1.361,1.392c0.58,0.341,1.21,0.512,1.892,0.512
		c0.491,0,0.972-0.099,1.443-0.297c0.47-0.197,0.879-0.471,1.228-0.818c0.348-0.348,0.62-0.757,0.818-1.228
		c0.19-0.45,0.286-0.938,0.286-1.463c0-0.546-0.096-1.043-0.286-1.493c-0.191-0.457-0.457-0.859-0.798-1.207
		c-0.361-0.355-0.764-0.624-1.207-0.809c-0.47-0.198-0.965-0.297-1.483-0.297c-0.695,0-1.326,0.171-1.892,0.512
		c-0.566,0.334-1.02,0.795-1.361,1.381C213.872,89.44,213.701,90.078,213.701,90.767z M214.049,90.767
		c0-0.614,0.153-1.187,0.46-1.719c0.293-0.525,0.709-0.947,1.248-1.269c0.532-0.307,1.104-0.46,1.718-0.46
		c0.607,0,1.177,0.153,1.708,0.46c0.532,0.321,0.952,0.743,1.258,1.269c0.3,0.539,0.45,1.112,0.45,1.719
		c0,0.607-0.15,1.18-0.45,1.719c-0.307,0.539-0.726,0.962-1.258,1.269c-0.525,0.313-1.095,0.471-1.708,0.471
		c-0.621,0-1.193-0.157-1.718-0.471c-0.539-0.313-0.955-0.736-1.248-1.269C214.202,91.953,214.049,91.38,214.049,90.767z
		 M214.325,90.767c0,0.58,0.14,1.111,0.419,1.596c0.272,0.478,0.654,0.863,1.146,1.156c0.484,0.286,1.009,0.43,1.575,0.43
		c0.416,0,0.819-0.082,1.208-0.246c0.389-0.163,0.733-0.396,1.033-0.695c0.3-0.3,0.525-0.638,0.675-1.013
		c0.157-0.389,0.235-0.798,0.235-1.228c0-0.437-0.078-0.849-0.235-1.238c-0.15-0.361-0.378-0.695-0.685-1.002
		c-0.3-0.3-0.641-0.532-1.023-0.695c-0.389-0.157-0.792-0.235-1.208-0.235c-0.566,0-1.091,0.143-1.575,0.43
		c-0.491,0.293-0.873,0.679-1.146,1.155C214.465,89.665,214.325,90.193,214.325,90.767z"/>
	<path d="M232.994,90.981h-8.521c0.055,0.682,0.256,1.289,0.604,1.821c0.361,0.552,0.822,0.981,1.381,1.288
		c0.559,0.314,1.187,0.471,1.882,0.471c1.241,0,2.274-0.552,3.1-1.657l0.757,0.522c-0.396,0.62-0.958,1.121-1.688,1.503
		c-0.736,0.389-1.487,0.584-2.25,0.584c-0.853,0-1.644-0.215-2.374-0.645c-0.368-0.219-0.695-0.471-0.982-0.758
		c-0.287-0.286-0.539-0.613-0.757-0.981c-0.43-0.729-0.645-1.521-0.645-2.373c0-0.859,0.211-1.654,0.634-2.384
		c0.416-0.723,0.992-1.296,1.729-1.719c0.73-0.423,1.528-0.635,2.394-0.635c0.798,0,1.562,0.202,2.292,0.604
		c0.723,0.417,1.302,0.973,1.739,1.668c0.252,0.389,0.433,0.798,0.542,1.228C232.939,89.948,232.994,90.436,232.994,90.981z
		 M224.544,90.071h7.396c-0.116-0.587-0.348-1.115-0.696-1.586c-0.354-0.471-0.794-0.839-1.319-1.104
		c-0.519-0.267-1.074-0.399-1.667-0.399c-0.6,0-1.166,0.133-1.698,0.399c-0.532,0.266-0.975,0.638-1.33,1.114
		C224.861,88.986,224.633,89.512,224.544,90.071z M230.917,92.557l0.225,0.153c-0.757,1.003-1.695,1.504-2.813,1.504
		c-0.56,0-1.084-0.123-1.576-0.368c-0.491-0.238-0.904-0.583-1.238-1.033c-0.334-0.437-0.552-0.931-0.655-1.483h0.307
		c0.109,0.743,0.471,1.364,1.084,1.862c0.6,0.497,1.295,0.746,2.086,0.746C229.363,93.938,230.222,93.478,230.917,92.557z
		 M231.388,89.457l0.102,0.267h-6.506c0.272-0.758,0.695-1.344,1.269-1.76c0.586-0.423,1.254-0.635,2.005-0.635
		c0.45,0,0.89,0.089,1.32,0.267c0.416,0.184,0.784,0.437,1.104,0.757C231.003,88.68,231.238,89.048,231.388,89.457z M225.394,89.447
		h5.688l-0.071-0.153c-0.259-0.505-0.631-0.914-1.115-1.228c-0.498-0.308-1.043-0.461-1.637-0.461c-0.621,0-1.18,0.157-1.678,0.471
		C226.089,88.383,225.693,88.84,225.394,89.447z"/>
	<path d="M234.784,95.309v-9.074h0.972v1.115c0.511-0.805,1.265-1.248,2.261-1.33v0.993c-0.28,0.021-0.583,0.119-0.911,0.296
		c-0.307,0.171-0.586,0.413-0.839,0.727c-0.341,0.457-0.511,1.044-0.511,1.76v5.514H234.784z M238.027,87.36v0.276
		c-0.512,0.088-0.911,0.323-1.197,0.705c-0.293,0.375-0.44,0.859-0.44,1.453v5.514h-0.276v-5.514c0-0.655,0.17-1.204,0.512-1.647
		C236.967,87.718,237.434,87.456,238.027,87.36z"/>
	<path d="M239.5,83.442v-2.098h0.972v2.098H239.5z M239.5,95.309v-9.074h0.972v9.074H239.5z M240.83,81.345h0.276v2.098h-0.276
		V81.345z M240.83,86.234h0.276v9.074h-0.276V86.234z"/>
	<path d="M252.39,90.981h-8.521c0.055,0.682,0.256,1.289,0.604,1.821c0.361,0.552,0.822,0.981,1.381,1.288
		c0.559,0.314,1.187,0.471,1.882,0.471c1.241,0,2.274-0.552,3.1-1.657l0.757,0.522c-0.396,0.62-0.958,1.121-1.688,1.503
		c-0.736,0.389-1.487,0.584-2.25,0.584c-0.853,0-1.644-0.215-2.374-0.645c-0.368-0.219-0.695-0.471-0.982-0.758
		c-0.287-0.286-0.539-0.613-0.757-0.981c-0.43-0.729-0.645-1.521-0.645-2.373c0-0.859,0.211-1.654,0.634-2.384
		c0.416-0.723,0.992-1.296,1.729-1.719c0.73-0.423,1.528-0.635,2.394-0.635c0.798,0,1.562,0.202,2.292,0.604
		c0.723,0.417,1.302,0.973,1.739,1.668c0.252,0.389,0.433,0.798,0.542,1.228C252.335,89.948,252.39,90.436,252.39,90.981z
		 M243.94,90.071h7.396c-0.116-0.587-0.348-1.115-0.696-1.586c-0.354-0.471-0.794-0.839-1.319-1.104
		c-0.519-0.267-1.074-0.399-1.667-0.399c-0.6,0-1.166,0.133-1.698,0.399c-0.532,0.266-0.975,0.638-1.33,1.114
		C244.257,88.986,244.028,89.512,243.94,90.071z M250.313,92.557l0.225,0.153c-0.757,1.003-1.695,1.504-2.813,1.504
		c-0.56,0-1.084-0.123-1.576-0.368c-0.491-0.238-0.904-0.583-1.238-1.033c-0.334-0.437-0.552-0.931-0.655-1.483h0.307
		c0.109,0.743,0.471,1.364,1.084,1.862c0.6,0.497,1.295,0.746,2.086,0.746C248.758,93.938,249.617,93.478,250.313,92.557z
		 M250.784,89.457l0.102,0.267h-6.506c0.272-0.758,0.695-1.344,1.269-1.76c0.586-0.423,1.254-0.635,2.005-0.635
		c0.45,0,0.89,0.089,1.32,0.267c0.416,0.184,0.784,0.437,1.104,0.757C250.398,88.68,250.633,89.048,250.784,89.457z M244.789,89.447
		h5.688l-0.071-0.153c-0.259-0.505-0.631-0.914-1.115-1.228c-0.498-0.308-1.043-0.461-1.637-0.461c-0.621,0-1.18,0.157-1.678,0.471
		C245.484,88.383,245.089,88.84,244.789,89.447z"/>
	<path d="M254.18,86.234h0.972v1.105c0.695-0.88,1.647-1.32,2.854-1.32c0.716,0,1.343,0.144,1.882,0.43
		c0.532,0.294,0.948,0.706,1.248,1.238c0.293,0.525,0.44,1.146,0.44,1.861v0.175v5.585h-0.972v-5.514v-0.144
		c0-0.572-0.105-1.057-0.317-1.452s-0.522-0.703-0.931-0.921c-0.402-0.211-0.883-0.317-1.442-0.317
		c-0.525,0-0.999,0.119-1.422,0.358c-0.416,0.231-0.743,0.566-0.982,1.002c-0.239,0.443-0.358,0.945-0.358,1.504v5.483h-0.972
		V86.234z M260.256,95.309h-0.287v-5.514v-0.144c0-0.675-0.174-1.187-0.521-1.534s-0.859-0.521-1.535-0.521
		c-0.43,0-0.805,0.092-1.125,0.275c-0.321,0.185-0.566,0.444-0.737,0.778c-0.177,0.341-0.266,0.732-0.266,1.176v5.483h-0.276v-5.483
		c0-0.512,0.103-0.954,0.307-1.33c0.19-0.368,0.474-0.657,0.849-0.869c0.369-0.204,0.784-0.307,1.248-0.307
		c0.744,0,1.323,0.201,1.739,0.604c0.402,0.416,0.604,0.992,0.604,1.729v0.144V95.309z"/>
	<path d="M270.619,86.838l-0.532,0.809c-0.648-0.443-1.351-0.665-2.107-0.665c-0.675,0-1.303,0.167-1.882,0.501
		c-0.58,0.335-1.04,0.795-1.381,1.382c-0.341,0.586-0.512,1.214-0.512,1.882c0,0.675,0.17,1.306,0.512,1.893
		c0.341,0.594,0.808,1.061,1.401,1.401c0.586,0.348,1.214,0.521,1.882,0.521c0.839,0,1.626-0.286,2.363-0.859l0.614,0.758
		c-0.354,0.313-0.805,0.569-1.35,0.767c-0.532,0.191-1.081,0.287-1.647,0.287c-0.859,0-1.654-0.215-2.384-0.645
		c-0.736-0.437-1.313-1.017-1.729-1.739c-0.423-0.729-0.634-1.518-0.634-2.363c0-0.859,0.215-1.65,0.645-2.373
		c0.423-0.729,0.996-1.31,1.718-1.739c0.73-0.423,1.511-0.635,2.343-0.635c0.3,0,0.617,0.034,0.952,0.103
		c0.354,0.075,0.675,0.171,0.961,0.287C270.152,86.538,270.408,86.682,270.619,86.838z M269.893,87.943l-0.154,0.235
		c-0.545-0.382-1.132-0.573-1.759-0.573c-0.559,0-1.081,0.14-1.565,0.42c-0.491,0.293-0.873,0.679-1.146,1.155
		c-0.287,0.478-0.43,0.999-0.43,1.565c0,0.573,0.143,1.104,0.43,1.596s0.675,0.88,1.166,1.166c0.484,0.287,1.006,0.43,1.565,0.43
		c0.675,0,1.295-0.211,1.862-0.634l0.041-0.031c0.034-0.033,0.058-0.054,0.071-0.061l0.174,0.225
		c-0.682,0.519-1.398,0.777-2.148,0.777c-0.621,0-1.194-0.156-1.719-0.471c-0.532-0.307-0.951-0.729-1.258-1.269
		c-0.313-0.524-0.47-1.101-0.47-1.729c0-0.443,0.088-0.88,0.266-1.31c0.17-0.416,0.423-0.784,0.757-1.104
		c0.341-0.327,0.709-0.576,1.104-0.747c0.389-0.17,0.822-0.256,1.299-0.256c0.32,0,0.648,0.052,0.982,0.153
		c0.334,0.103,0.604,0.226,0.808,0.369l0.041,0.03c0.007,0,0.016,0.004,0.025,0.01C269.847,87.898,269.866,87.916,269.893,87.943z"
		/>
	<path d="M281.269,90.981h-8.521c0.055,0.682,0.256,1.289,0.604,1.821c0.361,0.552,0.822,0.981,1.381,1.288
		c0.559,0.314,1.187,0.471,1.882,0.471c1.241,0,2.274-0.552,3.1-1.657l0.757,0.522c-0.396,0.62-0.958,1.121-1.688,1.503
		c-0.736,0.389-1.487,0.584-2.25,0.584c-0.853,0-1.644-0.215-2.374-0.645c-0.368-0.219-0.695-0.471-0.982-0.758
		c-0.287-0.286-0.539-0.613-0.757-0.981c-0.43-0.729-0.645-1.521-0.645-2.373c0-0.859,0.211-1.654,0.634-2.384
		c0.416-0.723,0.992-1.296,1.729-1.719c0.73-0.423,1.528-0.635,2.394-0.635c0.798,0,1.562,0.202,2.292,0.604
		c0.723,0.417,1.302,0.973,1.739,1.668c0.252,0.389,0.433,0.798,0.542,1.228C281.214,89.948,281.269,90.436,281.269,90.981z
		 M272.819,90.071h7.396c-0.116-0.587-0.348-1.115-0.696-1.586c-0.354-0.471-0.794-0.839-1.319-1.104
		c-0.519-0.267-1.074-0.399-1.667-0.399c-0.6,0-1.166,0.133-1.698,0.399c-0.532,0.266-0.975,0.638-1.33,1.114
		C273.136,88.986,272.907,89.512,272.819,90.071z M279.192,92.557l0.225,0.153c-0.757,1.003-1.695,1.504-2.813,1.504
		c-0.56,0-1.084-0.123-1.576-0.368c-0.491-0.238-0.904-0.583-1.238-1.033c-0.334-0.437-0.552-0.931-0.655-1.483h0.307
		c0.109,0.743,0.471,1.364,1.084,1.862c0.6,0.497,1.295,0.746,2.086,0.746C277.637,93.938,278.496,93.478,279.192,92.557z
		 M279.663,89.457l0.102,0.267h-6.506c0.272-0.758,0.695-1.344,1.269-1.76c0.586-0.423,1.254-0.635,2.005-0.635
		c0.45,0,0.89,0.089,1.32,0.267c0.416,0.184,0.784,0.437,1.104,0.757C279.277,88.68,279.512,89.048,279.663,89.457z M273.668,89.447
		h5.688l-0.071-0.153c-0.259-0.505-0.631-0.914-1.115-1.228c-0.498-0.308-1.043-0.461-1.637-0.461c-0.621,0-1.18,0.157-1.678,0.471
		C274.363,88.383,273.968,88.84,273.668,89.447z"/>
	<path d="M286.537,94.347l-0.082-0.051l0.133-0.245c0.675,0.423,1.34,0.736,1.995,0.94c0.655,0.212,1.347,0.317,2.077,0.317
		c0.839,0,1.609-0.174,2.312-0.521c0.695-0.348,1.241-0.832,1.637-1.453c0.396-0.606,0.593-1.289,0.593-2.046
		c0-0.75-0.242-1.436-0.726-2.056c-0.219-0.28-0.525-0.56-0.921-0.839c-0.396-0.28-1.009-0.638-1.841-1.074
		c-0.969-0.525-1.623-0.903-1.964-1.136c-0.341-0.238-0.597-0.478-0.767-0.716c-0.218-0.32-0.327-0.651-0.327-0.992
		c0-0.382,0.105-0.729,0.317-1.044c0.205-0.307,0.495-0.552,0.87-0.736c0.375-0.178,0.774-0.266,1.197-0.266
		s0.853,0.064,1.289,0.194c0.43,0.129,0.808,0.296,1.135,0.501l0.144,0.092c0.014,0.014,0.041,0.031,0.082,0.052l-0.133,0.255
		c-0.321-0.238-0.716-0.433-1.187-0.583c-0.471-0.149-0.924-0.225-1.361-0.225c-0.396,0-0.747,0.075-1.054,0.225
		c-0.313,0.15-0.563,0.365-0.747,0.645c-0.184,0.273-0.276,0.57-0.276,0.891c0,0.313,0.123,0.631,0.369,0.951
		c0.143,0.184,0.389,0.389,0.736,0.613c0.361,0.232,0.961,0.577,1.8,1.033c0.689,0.369,1.2,0.655,1.535,0.859
		c0.327,0.205,0.607,0.409,0.839,0.614c0.225,0.204,0.423,0.423,0.593,0.654c0.45,0.621,0.675,1.32,0.675,2.098
		c0,0.798-0.211,1.527-0.634,2.188c-0.416,0.648-0.992,1.16-1.729,1.535c-0.723,0.375-1.534,0.563-2.435,0.563
		c-0.744,0-1.442-0.099-2.097-0.297C287.935,95.098,287.253,94.783,286.537,94.347z M286.752,93.733l0.481-0.921l0.041,0.021
		l0.072,0.041c0.634,0.375,1.21,0.645,1.729,0.808c0.552,0.178,1.087,0.267,1.606,0.267c0.539,0,1.064-0.119,1.575-0.358
		c0.505-0.238,0.89-0.553,1.156-0.941c0.279-0.402,0.419-0.835,0.419-1.299c0-0.409-0.109-0.764-0.328-1.063
		c-0.191-0.273-0.454-0.528-0.788-0.768c-0.327-0.238-0.89-0.566-1.688-0.982c-0.982-0.524-1.705-0.947-2.168-1.269
		c-0.416-0.279-0.761-0.6-1.033-0.961c-0.382-0.525-0.573-1.108-0.573-1.75c0-0.634,0.17-1.221,0.512-1.759
		c0.334-0.525,0.801-0.948,1.401-1.269c0.593-0.307,1.228-0.461,1.903-0.461c0.539,0,1.115,0.093,1.729,0.276
		c0.627,0.198,1.142,0.44,1.544,0.727l-0.491,0.89c-0.873-0.586-1.818-0.88-2.834-0.88c-0.511,0-0.968,0.106-1.371,0.317
		c-0.416,0.219-0.74,0.509-0.972,0.87c-0.246,0.375-0.369,0.777-0.369,1.207c0,0.478,0.167,0.928,0.501,1.35
		c0.205,0.246,0.498,0.491,0.88,0.737c0.463,0.293,1.084,0.647,1.862,1.063c0.832,0.45,1.442,0.809,1.831,1.074
		c0.409,0.293,0.712,0.583,0.91,0.869c0.369,0.498,0.553,1.074,0.553,1.729c0,0.682-0.181,1.303-0.542,1.861
		c-0.361,0.553-0.863,0.989-1.503,1.31c-0.655,0.32-1.368,0.48-2.138,0.48C289.275,94.95,287.973,94.545,286.752,93.733z"/>
	<path d="M297.38,80.649h0.972v6.69c0.695-0.88,1.647-1.32,2.854-1.32c0.716,0,1.343,0.144,1.882,0.43
		c0.532,0.294,0.948,0.706,1.248,1.238c0.293,0.525,0.44,1.146,0.44,1.861v0.175v5.585h-0.972v-5.514v-0.144
		c0-0.572-0.105-1.057-0.317-1.452s-0.522-0.703-0.931-0.921c-0.402-0.211-0.883-0.317-1.442-0.317
		c-0.525,0-0.999,0.119-1.422,0.358c-0.416,0.231-0.743,0.566-0.982,1.002c-0.239,0.443-0.358,0.945-0.358,1.504v5.483h-0.972
		V80.649z M298.71,80.649h0.276v5.637c-0.082,0.048-0.174,0.116-0.276,0.204V80.649z M303.457,95.309h-0.287v-5.514v-0.144
		c0-0.675-0.174-1.187-0.521-1.534s-0.859-0.521-1.535-0.521c-0.43,0-0.805,0.092-1.125,0.275c-0.321,0.185-0.566,0.444-0.737,0.778
		c-0.177,0.341-0.266,0.732-0.266,1.176v5.483h-0.276v-5.483c0-0.512,0.103-0.954,0.307-1.33c0.19-0.368,0.474-0.657,0.849-0.869
		c0.369-0.204,0.784-0.307,1.248-0.307c0.744,0,1.323,0.201,1.739,0.604c0.402,0.416,0.604,0.992,0.604,1.729v0.144V95.309z"/>
	<path d="M315.927,95.309h-0.982v-1.657c-0.982,1.241-2.24,1.862-3.775,1.862c-0.853,0-1.644-0.212-2.374-0.635
		c-0.723-0.416-1.295-0.992-1.718-1.729c-0.43-0.729-0.645-1.524-0.645-2.384c0-0.866,0.215-1.66,0.645-2.384
		c0.423-0.736,0.996-1.313,1.718-1.729c0.73-0.423,1.521-0.635,2.374-0.635c0.757,0,1.453,0.157,2.087,0.471
		c0.634,0.314,1.197,0.777,1.688,1.392v-1.647h0.982V95.309z M314.945,90.767c0-0.695-0.167-1.333-0.501-1.913
		c-0.334-0.579-0.788-1.04-1.36-1.381c-0.58-0.341-1.214-0.512-1.903-0.512c-0.689,0-1.323,0.171-1.903,0.512
		c-0.566,0.334-1.02,0.795-1.36,1.381c-0.341,0.587-0.512,1.225-0.512,1.913c0,0.682,0.17,1.316,0.512,1.902
		c0.348,0.601,0.805,1.064,1.371,1.392c0.58,0.341,1.21,0.512,1.893,0.512c0.682,0,1.313-0.171,1.893-0.512
		c0.573-0.334,1.03-0.798,1.371-1.392C314.778,92.09,314.945,91.455,314.945,90.767z M314.597,90.767
		c0,0.628-0.153,1.207-0.46,1.739c-0.307,0.531-0.723,0.951-1.248,1.258c-0.519,0.307-1.088,0.461-1.708,0.461
		s-1.193-0.157-1.719-0.471c-0.539-0.313-0.955-0.736-1.248-1.269c-0.307-0.532-0.46-1.105-0.46-1.719
		c0-0.614,0.153-1.187,0.46-1.719c0.293-0.525,0.709-0.947,1.248-1.269c0.532-0.307,1.105-0.46,1.719-0.46
		c0.484,0,0.934,0.089,1.35,0.266c0.409,0.185,0.768,0.43,1.074,0.736c0.3,0.314,0.542,0.679,0.727,1.095
		C314.509,89.846,314.597,90.296,314.597,90.767z M314.321,90.767c0-0.437-0.079-0.849-0.235-1.238
		c-0.157-0.375-0.382-0.709-0.675-1.002c-0.3-0.3-0.638-0.532-1.013-0.695c-0.396-0.157-0.801-0.235-1.217-0.235
		c-0.873,0-1.613,0.307-2.22,0.92c-0.614,0.621-0.921,1.371-0.921,2.251c0,0.887,0.307,1.637,0.921,2.251
		c0.6,0.62,1.34,0.931,2.22,0.931c0.416,0,0.822-0.082,1.217-0.246c0.375-0.156,0.716-0.389,1.023-0.695
		c0.293-0.3,0.515-0.638,0.665-1.013C314.243,91.605,314.321,91.196,314.321,90.767z M316.551,95.309h-0.276v-9.074h0.276V95.309z"
		/>
	<path d="M318.842,95.309v-9.074h0.972v1.115c0.511-0.805,1.265-1.248,2.261-1.33v0.993c-0.28,0.021-0.583,0.119-0.911,0.296
		c-0.307,0.171-0.586,0.413-0.839,0.727c-0.341,0.457-0.511,1.044-0.511,1.76v5.514H318.842z M322.085,87.36v0.276
		c-0.512,0.088-0.911,0.323-1.197,0.705c-0.293,0.375-0.44,0.859-0.44,1.453v5.514h-0.276v-5.514c0-0.655,0.17-1.204,0.512-1.647
		C321.025,87.718,321.492,87.456,322.085,87.36z"/>
	<path d="M323.558,83.442v-2.098h0.972v2.098H323.558z M323.558,95.309v-9.074h0.972v9.074H323.558z M324.888,81.345h0.276v2.098
		h-0.276V81.345z M324.888,86.234h0.276v9.074h-0.276V86.234z"/>
	<path d="M327.456,86.234h0.972v1.105c0.695-0.88,1.647-1.32,2.854-1.32c0.716,0,1.343,0.144,1.882,0.43
		c0.532,0.294,0.948,0.706,1.248,1.238c0.293,0.525,0.44,1.146,0.44,1.861v0.175v5.585h-0.972v-5.514v-0.144
		c0-0.572-0.105-1.057-0.317-1.452s-0.522-0.703-0.931-0.921c-0.402-0.211-0.883-0.317-1.442-0.317
		c-0.525,0-0.999,0.119-1.422,0.358c-0.416,0.231-0.743,0.566-0.982,1.002c-0.239,0.443-0.358,0.945-0.358,1.504v5.483h-0.972
		V86.234z M333.532,95.309h-0.287v-5.514v-0.144c0-0.675-0.174-1.187-0.521-1.534s-0.859-0.521-1.535-0.521
		c-0.43,0-0.805,0.092-1.125,0.275c-0.321,0.185-0.566,0.444-0.737,0.778c-0.177,0.341-0.266,0.732-0.266,1.176v5.483h-0.276v-5.483
		c0-0.512,0.103-0.954,0.307-1.33c0.19-0.368,0.474-0.657,0.849-0.869c0.369-0.204,0.784-0.307,1.248-0.307
		c0.744,0,1.323,0.201,1.739,0.604c0.402,0.416,0.604,0.992,0.604,1.729v0.144V95.309z"/>
	<path d="M345.021,87.912v-1.678h0.982v9.074v0.174c0,0.654-0.065,1.2-0.194,1.637c-0.137,0.464-0.358,0.91-0.665,1.34
		c-0.45,0.614-1.013,1.088-1.688,1.422c-0.682,0.349-1.398,0.522-2.148,0.522c-0.539,0-1.061-0.093-1.565-0.276
		c-0.498-0.171-0.955-0.423-1.371-0.757c-0.402-0.308-0.774-0.72-1.115-1.238c-0.334-0.539-0.539-1.04-0.614-1.504h0.992
		c0.246,0.839,0.706,1.521,1.381,2.046c0.668,0.525,1.425,0.788,2.271,0.788c0.423,0,0.839-0.075,1.248-0.225
		c0.423-0.157,0.805-0.376,1.146-0.655s0.621-0.601,0.839-0.962c0.334-0.559,0.501-1.285,0.501-2.179v-0.215v-1.565
		c-0.484,0.607-1.043,1.068-1.678,1.382c-0.655,0.32-1.337,0.48-2.046,0.48c-0.859,0-1.654-0.215-2.384-0.645
		c-0.723-0.43-1.306-1.013-1.749-1.749c-0.437-0.723-0.655-1.515-0.655-2.373c0-0.853,0.215-1.641,0.645-2.363
		c0.423-0.729,0.996-1.31,1.718-1.739c0.73-0.423,1.518-0.635,2.363-0.635c0.478,0,0.968,0.079,1.473,0.235
		c0.498,0.164,0.944,0.389,1.34,0.676C344.458,87.23,344.782,87.558,345.021,87.912z M345.021,90.767
		c0-0.539-0.096-1.033-0.287-1.483c-0.191-0.457-0.457-0.859-0.798-1.207c-0.341-0.354-0.74-0.627-1.197-0.818
		c-0.471-0.198-0.965-0.297-1.483-0.297c-0.682,0-1.313,0.171-1.893,0.512c-0.573,0.334-1.03,0.795-1.371,1.381
		c-0.341,0.587-0.512,1.225-0.512,1.913c0,0.682,0.17,1.316,0.512,1.902c0.348,0.601,0.805,1.064,1.371,1.392
		c0.586,0.341,1.217,0.512,1.893,0.512c0.491,0,0.972-0.099,1.442-0.297c0.464-0.197,0.873-0.474,1.228-0.828
		c0.348-0.355,0.617-0.761,0.808-1.218C344.925,91.779,345.021,91.292,345.021,90.767z M344.672,90.767
		c0,0.628-0.153,1.207-0.46,1.739c-0.307,0.531-0.723,0.951-1.248,1.258c-0.519,0.307-1.088,0.461-1.708,0.461
		s-1.193-0.157-1.719-0.471c-0.539-0.313-0.955-0.736-1.248-1.269c-0.307-0.532-0.46-1.105-0.46-1.719
		c0-0.614,0.153-1.187,0.46-1.719c0.293-0.525,0.709-0.947,1.248-1.269c0.532-0.307,1.105-0.46,1.719-0.46
		c0.484,0,0.934,0.089,1.35,0.266c0.409,0.185,0.768,0.43,1.074,0.736c0.3,0.314,0.542,0.679,0.727,1.095
		C344.584,89.846,344.672,90.296,344.672,90.767z M337.982,96.628h0.296c0.184,0.628,0.559,1.152,1.125,1.576
		c0.566,0.422,1.187,0.634,1.862,0.634c0.532,0,1.04-0.137,1.524-0.409c0.484-0.279,0.873-0.654,1.166-1.125
		c0.286-0.471,0.43-1.092,0.43-1.862v-0.245v-0.409l0.276-0.235v0.675v0.215c-0.014,0.935-0.218,1.678-0.614,2.23
		c-0.32,0.45-0.726,0.801-1.217,1.054c-0.504,0.259-1.026,0.389-1.565,0.389c-0.757,0-1.439-0.232-2.046-0.696
		C338.613,97.954,338.201,97.357,337.982,96.628z M344.396,90.767c0-0.437-0.079-0.849-0.235-1.238
		c-0.15-0.361-0.378-0.695-0.686-1.002c-0.3-0.3-0.638-0.532-1.013-0.695c-0.389-0.157-0.791-0.235-1.207-0.235
		c-0.873,0-1.613,0.307-2.22,0.92c-0.614,0.621-0.921,1.371-0.921,2.251c0,0.887,0.307,1.637,0.921,2.251
		c0.6,0.62,1.34,0.931,2.22,0.931c0.416,0,0.818-0.082,1.207-0.246c0.382-0.163,0.723-0.396,1.023-0.695s0.525-0.638,0.675-1.013
		C344.318,91.605,344.396,91.196,344.396,90.767z"/>
</g>
<g>
</g>
<g>
</g>
<g>
</g>
<g>
</g>
<g>
</g>
<g>
</g>
</svg>
